<svg xmlns="http://www.w3.org/2000/svg" xmlns:xlink="http://www.w3.org/1999/xlink" width="500" zoomAndPan="magnify" viewBox="0 0 375 374.999991" height="500" preserveAspectRatio="xMidYMid meet" version="1.0"><defs><g/><clipPath id="93f6729c1a"><path d="M 118 180 L 255 180 L 255 286.089844 L 118 286.089844 Z M 118 180 " clip-rule="nonzero"/></clipPath><clipPath id="ad7fe2e2d5"><path d="M 112 88.839844 L 266.191406 88.839844 L 266.191406 248 L 112 248 Z M 112 88.839844 " clip-rule="nonzero"/></clipPath><clipPath id="eeda031bd2"><path d="M 123 88.839844 L 266.191406 88.839844 L 266.191406 216 L 123 216 Z M 123 88.839844 " clip-rule="nonzero"/></clipPath><clipPath id="336edc2c3b"><path d="M 88.441406 114 L 165 114 L 165 241 L 88.441406 241 Z M 88.441406 114 " clip-rule="nonzero"/></clipPath><clipPath id="23deb3f741"><path d="M 88.441406 185 L 215 185 L 215 278 L 88.441406 278 Z M 88.441406 185 " clip-rule="nonzero"/></clipPath><clipPath id="6e02d479d9"><path d="M 88.441406 200 L 165 200 L 165 286.089844 L 88.441406 286.089844 Z M 88.441406 200 " clip-rule="nonzero"/></clipPath><clipPath id="492d1878a4"><path d="M 88.441406 211 L 163 211 L 163 286.089844 L 88.441406 286.089844 Z M 88.441406 211 " clip-rule="nonzero"/></clipPath></defs><g fill="#5e17eb" fill-opacity="1"><g transform="translate(41.301199, 337.591898)"><g><path d="M 133.015625 -52.25 C 136.265625 -59.46875 139.125 -64.929688 141.59375 -68.640625 C 144.070312 -72.347656 146.394531 -74.585938 148.5625 -75.359375 C 150.738281 -76.128906 152.207031 -76.515625 152.96875 -76.515625 C 153.738281 -76.515625 154.125 -76.414062 154.125 -76.21875 C 154.125 -76.007812 153.691406 -75.6875 152.828125 -75.25 C 151.960938 -74.820312 150.472656 -73.070312 148.359375 -70 C 146.253906 -66.925781 143.597656 -62.210938 140.390625 -55.859375 C 137.179688 -49.503906 134.375 -42.785156 131.96875 -35.703125 C 136.050781 -35.703125 138.640625 -35.898438 139.734375 -36.296875 C 140.835938 -36.703125 141.503906 -36.769531 141.734375 -36.5 C 141.972656 -36.226562 141.660156 -35.796875 140.796875 -35.203125 C 138.585938 -33.660156 135.34375 -32.753906 131.0625 -32.484375 C 131 -32.359375 130.46875 -30.753906 129.46875 -27.671875 C 126.125 -17.316406 124.453125 -10.066406 124.453125 -5.921875 C 124.453125 -3.578125 124.867188 -1.9375 125.703125 -1 C 126.535156 -0.0625 127.421875 0.40625 128.359375 0.40625 C 129.296875 0.40625 130.332031 0.00390625 131.46875 -0.796875 C 135.28125 -3.609375 139.457031 -9.660156 144 -18.953125 C 144.539062 -20.085938 145.0625 -20.554688 145.5625 -20.359375 C 146.0625 -20.160156 146.046875 -19.457031 145.515625 -18.25 C 143.035156 -12.96875 140.976562 -9.085938 139.34375 -6.609375 C 137.707031 -4.140625 135.851562 -1.867188 133.78125 0.203125 C 131.03125 2.804688 128.285156 4.109375 125.546875 4.109375 C 122.472656 4.109375 120.335938 2.835938 119.140625 0.296875 C 118.535156 -0.898438 118.234375 -2 118.234375 -3 C 118.234375 -4.007812 118.25 -5.066406 118.28125 -6.171875 C 118.3125 -7.273438 118.425781 -8.710938 118.625 -10.484375 C 118.832031 -12.253906 119.316406 -14.457031 120.078125 -17.09375 C 120.847656 -19.738281 121.453125 -21.742188 121.890625 -23.109375 C 122.328125 -24.484375 122.976562 -26.335938 123.84375 -28.671875 C 124.71875 -31.015625 125.1875 -32.285156 125.25 -32.484375 C 122.375 -32.484375 111.039062 -32.921875 91.25 -33.796875 C 87.175781 -21.628906 80.757812 -10.734375 72 -1.109375 C 67.71875 3.640625 62.738281 7.617188 57.0625 10.828125 C 49.4375 15.035156 41.414062 17.140625 33 17.140625 C 29.445312 17.140625 25.5 16.625 21.15625 15.59375 C 16.8125 14.5625 12.703125 12.585938 8.828125 9.671875 C 4.953125 6.765625 2.191406 2.835938 0.546875 -2.109375 C -1.085938 -7.054688 -1.132812 -12.535156 0.40625 -18.546875 C 1.207031 -21.628906 2.992188 -24.503906 5.765625 -27.171875 C 8.535156 -29.847656 10.828125 -31.21875 12.640625 -31.28125 C 13.304688 -31.28125 13.707031 -31.195312 13.84375 -31.03125 C 13.976562 -30.863281 13.925781 -30.660156 13.6875 -30.421875 C 13.457031 -30.191406 13.175781 -30.015625 12.84375 -29.890625 C 10.832031 -29.015625 8.757812 -27.109375 6.625 -24.171875 C 3.8125 -20.285156 2.40625 -15.769531 2.40625 -10.625 C 2.40625 -2.601562 6.285156 3.378906 14.046875 7.328125 C 18.722656 9.660156 24.203125 10.828125 30.484375 10.828125 C 33.222656 10.828125 35.796875 10.5625 38.203125 10.03125 C 60.867188 4.945312 76.816406 -9.726562 86.046875 -34 C 84.304688 -34 82.613281 -33.613281 80.96875 -32.84375 C 79.332031 -32.070312 78.265625 -31.6875 77.765625 -31.6875 C 77.265625 -31.6875 76.984375 -31.890625 76.921875 -32.296875 C 76.921875 -33.429688 77.722656 -34.515625 79.328125 -35.546875 C 80.929688 -36.585938 82.332031 -37.171875 83.53125 -37.296875 L 87.4375 -37.296875 C 91.71875 -47.992188 96.601562 -58.828125 102.09375 -69.796875 C 100.351562 -69.597656 97.878906 -69.363281 94.671875 -69.09375 C 91.460938 -68.820312 88.851562 -68.585938 86.84375 -68.390625 C 84.832031 -68.191406 82.359375 -67.859375 79.421875 -67.390625 C 76.484375 -66.921875 74.039062 -66.367188 72.09375 -65.734375 C 70.15625 -65.097656 68 -64.210938 65.625 -63.078125 C 63.257812 -61.941406 61.273438 -60.640625 59.671875 -59.171875 C 55.859375 -55.554688 53.148438 -51.140625 51.546875 -45.921875 C 50.878906 -43.785156 50.546875 -41.515625 50.546875 -39.109375 C 50.546875 -36.703125 51.410156 -34.363281 53.140625 -32.09375 C 54.878906 -29.820312 57.1875 -28.6875 60.0625 -28.6875 C 65.75 -28.6875 69.796875 -31.960938 72.203125 -38.515625 C 73.335938 -41.585938 73.90625 -43.738281 73.90625 -44.96875 C 73.90625 -46.207031 73.6875 -47.144531 73.25 -47.78125 C 72.820312 -48.414062 72.941406 -48.800781 73.609375 -48.9375 C 74.078125 -49 74.476562 -48.734375 74.8125 -48.140625 C 75.613281 -46.398438 76.015625 -44.523438 76.015625 -42.515625 C 76.015625 -40.515625 75.34375 -38.34375 74 -36 C 71.726562 -31.851562 68.65625 -29.078125 64.78125 -27.671875 C 62.90625 -27.003906 61.03125 -26.671875 59.15625 -26.671875 C 57.289062 -26.671875 55.421875 -27.070312 53.546875 -27.875 C 50.003906 -29.414062 47.398438 -32.023438 45.734375 -35.703125 C 44.660156 -37.910156 44.125 -40.015625 44.125 -42.015625 C 44.125 -44.023438 44.441406 -46.316406 45.078125 -48.890625 C 45.710938 -51.460938 46.960938 -54.082031 48.828125 -56.75 C 50.703125 -59.425781 53.039062 -61.582031 55.84375 -63.21875 C 58.65625 -64.863281 61.460938 -66.21875 64.265625 -67.28125 C 67.078125 -68.351562 70.40625 -69.15625 74.25 -69.6875 C 78.101562 -70.226562 81.445312 -70.628906 84.28125 -70.890625 C 87.125 -71.160156 90.550781 -71.394531 94.5625 -71.59375 C 98.570312 -71.800781 101.546875 -72.003906 103.484375 -72.203125 C 104.222656 -73.472656 105.34375 -75.023438 106.84375 -76.859375 C 108.351562 -78.703125 109.640625 -79.773438 110.703125 -80.078125 C 111.773438 -80.378906 112.613281 -80.53125 113.21875 -80.53125 C 115.6875 -80.53125 116.921875 -79.472656 116.921875 -77.359375 C 116.921875 -75.253906 115.550781 -73.5 112.8125 -72.09375 C 110.070312 -70.695312 107.5 -70 105.09375 -70 C 103.289062 -66.519531 100.734375 -60.316406 97.421875 -51.390625 C 94.109375 -42.460938 92.351562 -37.765625 92.15625 -37.296875 C 97.164062 -37.296875 103.632812 -37.007812 111.5625 -36.4375 C 119.488281 -35.875 124.351562 -35.59375 126.15625 -35.59375 C 127.488281 -39.476562 129.773438 -45.03125 133.015625 -52.25 Z M 111.90625 -77.421875 C 111.101562 -77.421875 109.4375 -75.78125 106.90625 -72.5 C 111.25 -73.164062 113.382812 -74.335938 113.3125 -76.015625 C 113.25 -76.742188 112.882812 -77.175781 112.21875 -77.3125 C 112.144531 -77.382812 112.039062 -77.421875 111.90625 -77.421875 Z M 111.90625 -77.421875 "/></g></g></g><g fill="#5e17eb" fill-opacity="1"><g transform="translate(179.776269, 337.591898)"><g><path d="M 23.96875 -35.09375 C 28.84375 -35.09375 31.28125 -32.019531 31.28125 -25.875 C 31.28125 -23.0625 30.546875 -20.050781 29.078125 -16.84375 C 27.210938 -12.5 24.40625 -8.554688 20.65625 -5.015625 C 21.53125 -3.335938 23.101562 -2.5 25.375 -2.5 C 27.175781 -2.5 28.878906 -3.40625 30.484375 -5.21875 C 32.492188 -7.289062 33.929688 -9.109375 34.796875 -10.671875 C 35.660156 -12.242188 36.289062 -13.398438 36.6875 -14.140625 C 37.09375 -14.878906 37.613281 -15.929688 38.25 -17.296875 C 38.882812 -18.671875 39.269531 -19.503906 39.40625 -19.796875 C 39.539062 -20.097656 39.773438 -20.25 40.109375 -20.25 C 40.773438 -20.320312 41.109375 -20.09375 41.109375 -19.5625 C 41.109375 -19.351562 41.046875 -19.117188 40.921875 -18.859375 L 40.3125 -17.453125 C 39.914062 -16.515625 39.613281 -15.84375 39.40625 -15.4375 C 39.207031 -15.039062 38.859375 -14.320312 38.359375 -13.28125 C 37.859375 -12.25 37.421875 -11.429688 37.046875 -10.828125 C 36.679688 -10.222656 36.179688 -9.421875 35.546875 -8.421875 C 34.910156 -7.421875 34.34375 -6.617188 33.84375 -6.015625 C 33.34375 -5.410156 32.722656 -4.738281 31.984375 -4 C 31.253906 -3.269531 30.554688 -2.707031 29.890625 -2.3125 C 28.210938 -1.300781 26.640625 -0.796875 25.171875 -0.796875 C 22.429688 -0.796875 20.289062 -1.664062 18.75 -3.40625 C 15.675781 -1.132812 12.835938 0 10.234375 0 C 5.347656 0 2.90625 -3.070312 2.90625 -9.21875 C 2.90625 -12.03125 3.640625 -15.039062 5.109375 -18.25 C 7.117188 -22.925781 9.941406 -26.898438 13.578125 -30.171875 C 17.222656 -33.453125 20.6875 -35.09375 23.96875 -35.09375 Z M 25.0625 -31.984375 C 23.257812 -31.984375 21.117188 -30.78125 18.640625 -28.375 C 16.171875 -25.96875 13.96875 -22.691406 12.03125 -18.546875 C 9.695312 -13.734375 8.53125 -9.789062 8.53125 -6.71875 C 8.53125 -3.644531 9.695312 -2.109375 12.03125 -2.109375 C 13.707031 -2.109375 15.582031 -3.007812 17.65625 -4.8125 C 16.582031 -6.351562 16.046875 -7.992188 16.046875 -9.734375 C 16.179688 -12.609375 17.351562 -14.046875 19.5625 -14.046875 C 20.425781 -14.046875 21.140625 -13.742188 21.703125 -13.140625 C 22.273438 -12.535156 22.5625 -11.984375 22.5625 -11.484375 C 22.5625 -10.984375 22.492188 -10.460938 22.359375 -9.921875 C 23.492188 -11.597656 24.800781 -13.972656 26.28125 -17.046875 C 27.945312 -20.453125 28.78125 -23.789062 28.78125 -27.0625 C 28.78125 -30.34375 27.539062 -31.984375 25.0625 -31.984375 Z M 25.0625 -31.984375 "/></g></g></g><g fill="#5e17eb" fill-opacity="1"><g transform="translate(213.367251, 337.591898)"><g><path d="M 24.171875 -23.0625 C 26.503906 -25.875 27.671875 -28.25 27.671875 -30.1875 C 27.671875 -32.125 26.867188 -33.09375 25.265625 -33.09375 C 22.128906 -33.09375 18.554688 -30.21875 14.546875 -24.46875 C 13.273438 -22.664062 12.035156 -20.289062 10.828125 -17.34375 C 9.628906 -14.40625 9.03125 -11.75 9.03125 -9.375 C 9.03125 -7 9.515625 -5.078125 10.484375 -3.609375 C 11.453125 -2.140625 12.953125 -1.40625 14.984375 -1.40625 C 17.023438 -1.40625 18.914062 -1.890625 20.65625 -2.859375 C 22.394531 -3.828125 24.050781 -5.363281 25.625 -7.46875 C 27.195312 -9.570312 28.382812 -11.328125 29.1875 -12.734375 C 29.988281 -14.140625 31.085938 -16.242188 32.484375 -19.046875 C 32.953125 -19.984375 33.351562 -20.367188 33.6875 -20.203125 C 34.03125 -20.035156 34.203125 -19.800781 34.203125 -19.5 C 34.203125 -19.195312 33.75 -18.09375 32.84375 -16.1875 C 31.9375 -14.289062 31.03125 -12.503906 30.125 -10.828125 C 29.226562 -9.160156 27.945312 -7.289062 26.28125 -5.21875 C 23.269531 -1.46875 19.15625 0.40625 13.9375 0.40625 C 10.195312 0.40625 7.503906 -0.507812 5.859375 -2.34375 C 4.222656 -4.1875 3.40625 -6.3125 3.40625 -8.71875 C 3.40625 -11.664062 4.125 -14.875 5.5625 -18.34375 C 7 -21.820312 8.65625 -24.832031 10.53125 -27.375 C 14.40625 -32.65625 18.882812 -35.296875 23.96875 -35.296875 C 26.4375 -35.296875 28.222656 -34.710938 29.328125 -33.546875 C 30.429688 -32.378906 30.984375 -31.023438 30.984375 -29.484375 C 30.984375 -27.210938 30.046875 -25.273438 28.171875 -23.671875 C 27.242188 -22.796875 26.460938 -22.359375 25.828125 -22.359375 C 25.191406 -22.359375 24.640625 -22.59375 24.171875 -23.0625 Z M 24.171875 -23.0625 "/></g></g></g><g fill="#5e17eb" fill-opacity="1"><g transform="translate(239.437862, 337.591898)"><g><path d="M 36.203125 -27.171875 C 34.992188 -25.972656 33.285156 -23.25 31.078125 -19 C 28.878906 -14.757812 27.5625 -11.582031 27.125 -9.46875 C 26.6875 -7.363281 26.46875 -5.660156 26.46875 -4.359375 C 26.46875 -3.054688 26.972656 -2.40625 27.984375 -2.40625 C 29.253906 -2.40625 30.820312 -3.578125 32.6875 -5.921875 C 35.425781 -9.328125 38.132812 -13.769531 40.8125 -19.25 C 41.082031 -19.851562 41.382812 -20.1875 41.71875 -20.25 C 42.25 -20.457031 42.515625 -20.257812 42.515625 -19.65625 C 42.515625 -19.320312 42.414062 -18.921875 42.21875 -18.453125 C 36.070312 -6.015625 30.890625 0.203125 26.671875 0.203125 C 24.734375 0.203125 23.164062 -0.734375 21.96875 -2.609375 C 21.363281 -3.609375 21.0625 -4.941406 21.0625 -6.609375 C 21.0625 -8.285156 21.394531 -10.328125 22.0625 -12.734375 C 16.71875 -4.109375 12.101562 0.203125 8.21875 0.203125 C 7.15625 0.203125 6.1875 -0.128906 5.3125 -0.796875 C 3.3125 -2.203125 2.3125 -4.609375 2.3125 -8.015625 C 2.3125 -14.566406 5.148438 -21.222656 10.828125 -27.984375 C 14.035156 -31.722656 17.976562 -34.160156 22.65625 -35.296875 C 23.925781 -35.628906 25.132812 -35.796875 26.28125 -35.796875 C 29.351562 -35.796875 31.957031 -34.726562 34.09375 -32.59375 C 34.757812 -31.851562 34.957031 -31.148438 34.6875 -30.484375 C 34.425781 -29.816406 33.863281 -29.550781 33 -29.6875 C 32.257812 -32.09375 30.648438 -33.296875 28.171875 -33.296875 C 25.296875 -33.296875 21.753906 -31.019531 17.546875 -26.46875 C 15.140625 -23.800781 12.898438 -20.660156 10.828125 -17.046875 C 8.222656 -12.703125 6.921875 -9.222656 6.921875 -6.609375 C 6.921875 -4.003906 7.753906 -2.703125 9.421875 -2.703125 C 13.429688 -2.703125 18.679688 -8.851562 25.171875 -21.15625 C 26.441406 -23.632812 27.507812 -25.320312 28.375 -26.21875 C 29.25 -27.125 30.351562 -27.578125 31.6875 -27.578125 C 31.957031 -27.578125 32.644531 -27.472656 33.75 -27.265625 C 34.851562 -27.066406 35.671875 -27.035156 36.203125 -27.171875 Z M 36.203125 -27.171875 "/></g></g></g><g fill="#5e17eb" fill-opacity="1"><g transform="translate(9.495461, 123.284713)"><g><path d="M 121.234375 -22.421875 C 121.234375 -17.984375 119.640625 -13.859375 116.453125 -10.046875 C 111.929688 -4.597656 105.894531 -0.664062 98.34375 1.75 C 92.738281 3.539062 87.285156 4.4375 81.984375 4.4375 C 80.046875 4.4375 78.140625 4.320312 76.265625 4.09375 C 64.046875 2.53125 53.691406 -0.15625 45.203125 -3.96875 C 37.492188 1.71875 29.359375 4.5625 20.796875 4.5625 C 10.671875 4.5625 4.398438 1.753906 1.984375 -3.859375 C 1.441406 -5.179688 1.171875 -6.738281 1.171875 -8.53125 C 1.171875 -10.320312 2.066406 -12.226562 3.859375 -14.25 C 6.660156 -17.363281 10.550781 -18.921875 15.53125 -18.921875 C 18.800781 -18.921875 21.757812 -18.453125 24.40625 -17.515625 C 27.050781 -16.585938 30.320312 -15.070312 34.21875 -12.96875 C 38.113281 -10.863281 40.992188 -9.34375 42.859375 -8.40625 C 46.285156 -11.757812 49.828125 -16.410156 53.484375 -22.359375 C 57.148438 -28.316406 60.363281 -34.15625 63.125 -39.875 C 65.894531 -45.601562 69.421875 -51.972656 73.703125 -58.984375 C 77.984375 -65.992188 82.34375 -71.953125 86.78125 -76.859375 L 93.4375 -84.4375 C 87.28125 -85.53125 80.503906 -86.078125 73.109375 -86.078125 C 65.710938 -86.078125 57.578125 -85.101562 48.703125 -83.15625 C 36.554688 -80.59375 27.210938 -75.378906 20.671875 -67.515625 C 16.703125 -62.765625 14.71875 -58.242188 14.71875 -53.953125 C 14.71875 -48.273438 17.484375 -44.578125 23.015625 -42.859375 C 24.953125 -42.316406 26.660156 -42.046875 28.140625 -42.046875 C 29.628906 -42.046875 31.34375 -42.316406 33.28125 -42.859375 C 35.226562 -43.410156 37.117188 -44.5625 38.953125 -46.3125 C 40.785156 -48.0625 42.109375 -49.753906 42.921875 -51.390625 C 43.742188 -53.023438 44.15625 -54.25 44.15625 -55.0625 C 44.15625 -55.882812 44.539062 -56.296875 45.3125 -56.296875 C 46.09375 -56.210938 46.523438 -55.664062 46.609375 -54.65625 L 46.609375 -54.546875 C 45.742188 -48.859375 42.703125 -44.535156 37.484375 -41.578125 C 34.296875 -39.867188 31.109375 -39.015625 27.921875 -39.015625 L 21.84375 -40.0625 C 13.582031 -42.945312 9.453125 -48.316406 9.453125 -56.171875 C 9.453125 -61.546875 11.828125 -66.84375 16.578125 -72.0625 C 24.210938 -80.625 35.425781 -85.957031 50.21875 -88.0625 C 57.382812 -89.070312 64.835938 -89.578125 72.578125 -89.578125 C 80.328125 -89.578125 88.210938 -88.722656 96.234375 -87.015625 C 98.421875 -88.878906 100.332031 -90.125 101.96875 -90.75 C 103.601562 -91.375 104.554688 -91.6875 104.828125 -91.6875 C 105.097656 -91.6875 105.269531 -91.644531 105.34375 -91.5625 C 105.8125 -91.5625 105.910156 -91.304688 105.640625 -90.796875 C 105.367188 -90.296875 104.507812 -89.578125 103.0625 -88.640625 C 101.625 -87.710938 100.753906 -86.859375 100.453125 -86.078125 C 111.035156 -83.347656 118.664062 -79.457031 123.34375 -74.40625 C 125.832031 -71.59375 127.078125 -68.726562 127.078125 -65.8125 C 127.078125 -62.894531 126.21875 -59.957031 124.5 -57 C 122.25 -53.101562 118.59375 -50.160156 113.53125 -48.171875 C 108.46875 -46.191406 103.363281 -45.082031 98.21875 -44.84375 C 103.207031 -43.289062 107.84375 -41.113281 112.125 -38.3125 C 118.195312 -34.34375 121.234375 -29.046875 121.234375 -22.421875 Z M 80.359375 1.171875 C 89.078125 1.171875 96.472656 -1.320312 102.546875 -6.3125 C 109.160156 -11.601562 112.46875 -17.320312 112.46875 -23.46875 C 112.46875 -29.851562 109.082031 -34.679688 102.3125 -37.953125 C 99.820312 -39.128906 96.765625 -40.28125 93.140625 -41.40625 C 89.523438 -42.53125 86.609375 -43.484375 84.390625 -44.265625 C 82.171875 -45.046875 80.90625 -45.785156 80.59375 -46.484375 C 80.59375 -47.960938 81.722656 -48.742188 83.984375 -48.828125 C 85.460938 -48.828125 87.71875 -48.707031 90.75 -48.46875 C 93.789062 -48.238281 96.398438 -48.140625 98.578125 -48.171875 C 100.753906 -48.210938 103.378906 -48.992188 106.453125 -50.515625 C 109.535156 -52.035156 112.164062 -54 114.34375 -56.40625 C 117.84375 -60.300781 119.59375 -63.960938 119.59375 -67.390625 C 119.59375 -74.710938 112.742188 -79.96875 99.046875 -83.15625 C 94.921875 -77.476562 87.519531 -65.46875 76.84375 -47.125 C 66.175781 -28.789062 57.960938 -16.507812 52.203125 -10.28125 L 47.765625 -6.078125 C 56.566406 -2.410156 66.03125 -0.0703125 76.15625 0.9375 C 77.632812 1.09375 79.035156 1.171875 80.359375 1.171875 Z M 40.296875 -6.1875 C 31.179688 -10.550781 25.414062 -13.160156 23 -14.015625 C 20.59375 -14.867188 18.203125 -15.296875 15.828125 -15.296875 C 13.453125 -15.296875 11.5625 -14.457031 10.15625 -12.78125 C 8.757812 -11.113281 8.0625 -9.597656 8.0625 -8.234375 C 8.0625 -6.867188 8.375 -5.566406 9 -4.328125 C 10.707031 -0.816406 14.285156 0.9375 19.734375 0.9375 C 27.128906 0.9375 33.984375 -1.4375 40.296875 -6.1875 Z M 40.296875 -6.1875 "/></g></g></g><g fill="#5e17eb" fill-opacity="1"><g transform="translate(131.073047, 123.284713)"><g><path d="M 42.15625 -31.65625 C 40.757812 -30.25 38.773438 -27.070312 36.203125 -22.125 C 33.640625 -17.1875 32.101562 -13.488281 31.59375 -11.03125 C 31.082031 -8.582031 30.828125 -6.597656 30.828125 -5.078125 C 30.828125 -3.554688 31.414062 -2.796875 32.59375 -2.796875 C 34.070312 -2.796875 35.898438 -4.160156 38.078125 -6.890625 C 41.265625 -10.859375 44.414062 -16.035156 47.53125 -22.421875 C 47.84375 -23.117188 48.195312 -23.507812 48.59375 -23.59375 C 49.207031 -23.820312 49.515625 -23.585938 49.515625 -22.890625 C 49.515625 -22.503906 49.398438 -22.035156 49.171875 -21.484375 C 42.003906 -7.003906 35.96875 0.234375 31.0625 0.234375 C 28.8125 0.234375 26.984375 -0.851562 25.578125 -3.03125 C 24.878906 -4.195312 24.53125 -5.753906 24.53125 -7.703125 C 24.53125 -9.648438 24.921875 -12.023438 25.703125 -14.828125 C 19.472656 -4.785156 14.097656 0.234375 9.578125 0.234375 C 8.328125 0.234375 7.195312 -0.15625 6.1875 -0.9375 C 3.851562 -2.570312 2.6875 -5.375 2.6875 -9.34375 C 2.6875 -16.976562 5.992188 -24.726562 12.609375 -32.59375 C 16.347656 -36.945312 20.941406 -39.785156 26.390625 -41.109375 C 27.867188 -41.503906 29.269531 -41.703125 30.59375 -41.703125 C 34.175781 -41.703125 37.21875 -40.453125 39.71875 -37.953125 C 40.488281 -37.097656 40.71875 -36.28125 40.40625 -35.5 C 40.09375 -34.726562 39.429688 -34.421875 38.421875 -34.578125 C 37.566406 -37.378906 35.695312 -38.78125 32.8125 -38.78125 C 29.46875 -38.78125 25.34375 -36.128906 20.4375 -30.828125 C 17.632812 -27.710938 15.023438 -24.054688 12.609375 -19.859375 C 9.578125 -14.796875 8.0625 -10.742188 8.0625 -7.703125 C 8.0625 -4.671875 9.035156 -3.15625 10.984375 -3.15625 C 15.648438 -3.15625 21.757812 -10.316406 29.3125 -24.640625 C 30.789062 -27.523438 32.035156 -29.492188 33.046875 -30.546875 C 34.066406 -31.597656 35.351562 -32.125 36.90625 -32.125 C 37.21875 -32.125 38.015625 -32.003906 39.296875 -31.765625 C 40.585938 -31.535156 41.539062 -31.5 42.15625 -31.65625 Z M 42.15625 -31.65625 "/></g></g></g><g fill="#5e17eb" fill-opacity="1"><g transform="translate(171.949278, 123.284713)"><g><path d="M 27.453125 -5.25 C 27.453125 -3.070312 28.226562 -1.984375 29.78125 -1.984375 C 33.4375 -1.984375 38.613281 -8.835938 45.3125 -22.546875 C 45.863281 -23.628906 46.351562 -24.050781 46.78125 -23.8125 C 47.207031 -23.582031 47.421875 -23.273438 47.421875 -22.890625 C 47.421875 -22.503906 46.972656 -21.394531 46.078125 -19.5625 C 45.179688 -17.726562 44.285156 -15.972656 43.390625 -14.296875 C 42.492188 -12.628906 41.191406 -10.429688 39.484375 -7.703125 C 35.898438 -2.253906 32.082031 0.46875 28.03125 0.46875 C 25.382812 0.46875 23.28125 -0.617188 21.71875 -2.796875 C 21.019531 -3.816406 20.671875 -5.203125 20.671875 -6.953125 C 20.671875 -8.703125 21.0625 -10.820312 21.84375 -13.3125 C 22.625 -15.800781 24.765625 -19.851562 28.265625 -25.46875 C 29.117188 -26.863281 29.546875 -27.96875 29.546875 -28.78125 C 29.546875 -29.601562 28.882812 -30.015625 27.5625 -30.015625 C 26.238281 -30.015625 23.707031 -28.265625 19.96875 -24.765625 C 14.363281 -19.617188 8.914062 -11.910156 3.625 -1.640625 C 3.070312 -0.472656 1.628906 0.109375 -0.703125 0.109375 C -2.804688 0.265625 -4.128906 0.5 -4.671875 0.8125 C 10.117188 -29.9375 20.828125 -51.382812 27.453125 -63.53125 C 28.929688 -66.257812 30.234375 -68.164062 31.359375 -69.25 C 32.484375 -70.34375 33.828125 -70.890625 35.390625 -70.890625 C 35.773438 -70.890625 36.59375 -70.789062 37.84375 -70.59375 C 39.09375 -70.40625 40.023438 -70.347656 40.640625 -70.421875 C 38.304688 -68.015625 34.117188 -61.335938 28.078125 -50.390625 C 22.046875 -39.453125 16.269531 -28.335938 10.75 -17.046875 C 14.40625 -21.640625 17.691406 -25.222656 20.609375 -27.796875 C 23.535156 -30.367188 27.097656 -32.800781 31.296875 -35.09375 C 35.503906 -37.394531 38.582031 -38.546875 40.53125 -38.546875 C 41 -38.546875 41.425781 -38.46875 41.8125 -38.3125 C 32.238281 -21.488281 27.453125 -10.46875 27.453125 -5.25 Z M 27.453125 -5.25 "/></g></g></g><g fill="#5e17eb" fill-opacity="1"><g transform="translate(210.723295, 123.284713)"><g><path d="M 42.15625 -31.65625 C 40.757812 -30.25 38.773438 -27.070312 36.203125 -22.125 C 33.640625 -17.1875 32.101562 -13.488281 31.59375 -11.03125 C 31.082031 -8.582031 30.828125 -6.597656 30.828125 -5.078125 C 30.828125 -3.554688 31.414062 -2.796875 32.59375 -2.796875 C 34.070312 -2.796875 35.898438 -4.160156 38.078125 -6.890625 C 41.265625 -10.859375 44.414062 -16.035156 47.53125 -22.421875 C 47.84375 -23.117188 48.195312 -23.507812 48.59375 -23.59375 C 49.207031 -23.820312 49.515625 -23.585938 49.515625 -22.890625 C 49.515625 -22.503906 49.398438 -22.035156 49.171875 -21.484375 C 42.003906 -7.003906 35.96875 0.234375 31.0625 0.234375 C 28.8125 0.234375 26.984375 -0.851562 25.578125 -3.03125 C 24.878906 -4.195312 24.53125 -5.753906 24.53125 -7.703125 C 24.53125 -9.648438 24.921875 -12.023438 25.703125 -14.828125 C 19.472656 -4.785156 14.097656 0.234375 9.578125 0.234375 C 8.328125 0.234375 7.195312 -0.15625 6.1875 -0.9375 C 3.851562 -2.570312 2.6875 -5.375 2.6875 -9.34375 C 2.6875 -16.976562 5.992188 -24.726562 12.609375 -32.59375 C 16.347656 -36.945312 20.941406 -39.785156 26.390625 -41.109375 C 27.867188 -41.503906 29.269531 -41.703125 30.59375 -41.703125 C 34.175781 -41.703125 37.21875 -40.453125 39.71875 -37.953125 C 40.488281 -37.097656 40.71875 -36.28125 40.40625 -35.5 C 40.09375 -34.726562 39.429688 -34.421875 38.421875 -34.578125 C 37.566406 -37.378906 35.695312 -38.78125 32.8125 -38.78125 C 29.46875 -38.78125 25.34375 -36.128906 20.4375 -30.828125 C 17.632812 -27.710938 15.023438 -24.054688 12.609375 -19.859375 C 9.578125 -14.796875 8.0625 -10.742188 8.0625 -7.703125 C 8.0625 -4.671875 9.035156 -3.15625 10.984375 -3.15625 C 15.648438 -3.15625 21.757812 -10.316406 29.3125 -24.640625 C 30.789062 -27.523438 32.035156 -29.492188 33.046875 -30.546875 C 34.066406 -31.597656 35.351562 -32.125 36.90625 -32.125 C 37.21875 -32.125 38.015625 -32.003906 39.296875 -31.765625 C 40.585938 -31.535156 41.539062 -31.5 42.15625 -31.65625 Z M 42.15625 -31.65625 "/></g></g></g><g fill="#5e17eb" fill-opacity="1"><g transform="translate(251.599526, 123.284713)"><g><path d="M 31.296875 -6.78125 C 31.296875 -4.28125 32.3125 -3.03125 34.34375 -3.03125 C 38 -3.03125 42.863281 -9.144531 48.9375 -21.375 C 49.164062 -21.84375 49.378906 -22.304688 49.578125 -22.765625 C 49.773438 -23.234375 50.085938 -23.546875 50.515625 -23.703125 C 50.941406 -23.859375 51.234375 -23.757812 51.390625 -23.40625 C 51.546875 -23.0625 51.46875 -22.5 51.15625 -21.71875 C 44.925781 -7.238281 38.617188 0 32.234375 0 C 30.128906 0 28.453125 -0.929688 27.203125 -2.796875 C 25.960938 -4.671875 25.34375 -6.519531 25.34375 -8.34375 C 25.34375 -10.175781 25.535156 -11.875 25.921875 -13.4375 C 21.410156 -5.957031 17.519531 -1.710938 14.25 -0.703125 C 13.3125 -0.304688 12.394531 -0.109375 11.5 -0.109375 C 10.601562 -0.109375 9.726562 -0.226562 8.875 -0.46875 C 5.0625 -1.476562 3.15625 -4.515625 3.15625 -9.578125 C 3.15625 -13.003906 4.03125 -16.800781 5.78125 -20.96875 C 7.53125 -25.132812 10 -29.125 13.1875 -32.9375 C 16.382812 -36.75 20.242188 -39.316406 24.765625 -40.640625 C 26.398438 -41.191406 28.328125 -41.46875 30.546875 -41.46875 C 32.765625 -41.46875 35.234375 -40.765625 37.953125 -39.359375 C 43.253906 -49.328125 47.769531 -58.554688 51.5 -67.046875 C 52.59375 -69.609375 53.664062 -71.257812 54.71875 -72 C 55.769531 -72.738281 56.742188 -73.109375 57.640625 -73.109375 C 58.535156 -73.109375 59.078125 -73.109375 59.265625 -73.109375 C 59.460938 -73.109375 60.203125 -73.007812 61.484375 -72.8125 C 62.773438 -72.625 63.769531 -72.566406 64.46875 -72.640625 C 62.675781 -71.003906 57.925781 -63.066406 50.21875 -48.828125 C 40.40625 -30.597656 34.488281 -18.445312 32.46875 -12.375 C 31.6875 -10.125 31.296875 -8.257812 31.296875 -6.78125 Z M 37.03125 -37.484375 C 36.007812 -38.503906 34.582031 -39.015625 32.75 -39.015625 C 30.925781 -39.015625 28.378906 -37.648438 25.109375 -34.921875 C 19.890625 -30.554688 15.566406 -25.179688 12.140625 -18.796875 C 9.890625 -14.597656 8.765625 -11.132812 8.765625 -8.40625 C 8.765625 -7.164062 9.015625 -6.035156 9.515625 -5.015625 C 10.023438 -4.003906 10.820312 -3.5 11.90625 -3.5 C 14.5625 -3.5 17.832031 -6.222656 21.71875 -11.671875 C 25.613281 -17.128906 30.71875 -25.734375 37.03125 -37.484375 Z M 37.03125 -37.484375 "/></g></g></g><g fill="#5e17eb" fill-opacity="1"><g transform="translate(294.461173, 123.284713)"><g><path d="M 18.5 -5.421875 C 17.375 -4.140625 15.957031 -2.914062 14.25 -1.75 C 12.539062 -0.582031 10.59375 0 8.40625 0 C 6.226562 0 4.476562 -0.851562 3.15625 -2.5625 C 1.832031 -4.28125 1.171875 -6.285156 1.171875 -8.578125 C 1.171875 -10.878906 1.753906 -13.082031 2.921875 -15.1875 L 13.078125 -34.578125 C 14.554688 -37.453125 15.53125 -39.101562 16 -39.53125 C 16.46875 -39.957031 17.597656 -40.171875 19.390625 -40.171875 L 25.34375 -40.171875 C 25.1875 -40.015625 24.796875 -39.707031 24.171875 -39.25 C 22.773438 -38.3125 21.726562 -37.21875 21.03125 -35.96875 C 15.03125 -26.238281 10.976562 -18.6875 8.875 -13.3125 C 7.476562 -10.28125 6.78125 -7.789062 6.78125 -5.84375 C 6.78125 -3.65625 8.023438 -2.5625 10.515625 -2.5625 L 15.0625 -4.78125 C 18.175781 -7.820312 21.835938 -13.703125 26.046875 -22.421875 C 26.671875 -23.585938 27.21875 -23.9375 27.6875 -23.46875 C 27.914062 -23.320312 28.03125 -23.070312 28.03125 -22.71875 C 28.03125 -22.363281 27.675781 -21.46875 26.96875 -20.03125 C 26.269531 -18.59375 25.6875 -17.40625 25.21875 -16.46875 C 24.757812 -15.53125 23.804688 -13.773438 22.359375 -11.203125 C 20.921875 -8.640625 19.632812 -6.710938 18.5 -5.421875 Z M 18.5 -5.421875 "/></g></g></g><g fill="#5e17eb" fill-opacity="1"><g transform="translate(314.782492, 123.284713)"><g><path d="M 22.421875 -46.828125 C 22.421875 -43.328125 20.203125 -40.019531 15.765625 -36.90625 C 17.316406 -36.832031 19.394531 -36.796875 22 -36.796875 C 24.613281 -36.796875 27.90625 -36.988281 31.875 -37.375 C 32.03125 -37.144531 32.109375 -36.519531 32.109375 -35.5 C 32.109375 -34.488281 31.640625 -32.988281 30.703125 -31 C 29.773438 -29.019531 28.941406 -27.304688 28.203125 -25.859375 C 27.460938 -24.421875 26.757812 -23.0625 26.09375 -21.78125 C 25.4375 -20.5 24.695312 -18.921875 23.875 -17.046875 C 23.0625 -15.179688 22.378906 -13.46875 21.828125 -11.90625 C 19.878906 -5.988281 20.191406 -3.03125 22.765625 -3.03125 C 26.035156 -3.03125 30.863281 -9.535156 37.25 -22.546875 C 37.789062 -23.554688 38.238281 -23.941406 38.59375 -23.703125 C 38.945312 -23.472656 39.125 -23.179688 39.125 -22.828125 C 39.125 -22.484375 38.613281 -21.28125 37.59375 -19.21875 C 36.582031 -17.15625 35.492188 -15.03125 34.328125 -12.84375 C 33.160156 -10.664062 31.332031 -8.132812 28.84375 -5.25 C 25.882812 -1.675781 23.039062 0.109375 20.3125 0.109375 C 17.28125 0.109375 15.179688 -1.71875 14.015625 -5.375 C 13.773438 -6.070312 13.65625 -7.117188 13.65625 -8.515625 C 13.65625 -9.921875 14.101562 -11.789062 15 -14.125 C 15.894531 -16.46875 17.316406 -19.3125 19.265625 -22.65625 C 21.210938 -26.007812 22.300781 -27.976562 22.53125 -28.5625 C 22.769531 -29.144531 22.890625 -29.707031 22.890625 -30.25 C 22.890625 -32.664062 19.773438 -33.953125 13.546875 -34.109375 L 12.140625 -30.375 C 7.234375 -17.519531 2.519531 -8.914062 -2 -4.5625 C -2.769531 -3.851562 -3.15625 -4.082031 -3.15625 -5.25 C -3.15625 -5.488281 -3.078125 -5.765625 -2.921875 -6.078125 C 1.429688 -11.835938 5.203125 -18.648438 8.390625 -26.515625 C 11.585938 -34.378906 13.8125 -41.851562 15.0625 -48.9375 C 15.53125 -51.351562 16.617188 -52.5625 18.328125 -52.5625 C 20.046875 -52.5625 21.289062 -51.46875 22.0625 -49.28125 C 22.300781 -48.582031 22.421875 -47.765625 22.421875 -46.828125 Z M 22.421875 -46.828125 "/></g></g></g><g clip-path="url(#93f6729c1a)"><path stroke-linecap="butt" transform="matrix(0.00912945, 0, 0, -0.00912614, 88.436307, 286.074416)" fill="none" stroke-linejoin="miter" d="M 5278.3762 9583.154973 C 6686.507377 8746.358966 8094.210681 7909.13493 9091.583447 7337.288657 C 10088.956213 6765.014354 10675.570569 6457.689785 10968.66381 6304.0275 C 11262.184924 6150.365215 11262.184924 6150.365215 12101.672426 6324.572875 C 12941.159928 6499.208564 14620.562805 6848.051912 15460.478181 7022.6876 C 16299.965683 7197.323289 16299.965683 7197.323289 16144.647659 7128.838705 C 15989.329634 7060.78215 15678.265713 6924.66904 15435.661527 6739.332635 C 15193.05734 6553.568202 15018.912889 6319.436531 14860.599752 5757.862945 C 14702.286614 5196.289359 14560.660537 4307.273857 14470.807135 3614.723504 C 14380.953732 2922.60118 14342.445131 2426.087949 14320.623591 2167.130617 C 14298.80205 1908.173285 14293.66757 1886.343823 14306.931644 1878.211279 C 14320.623591 1870.078735 14353.569838 1875.643107 14372.824139 1882.491566 C 14391.650566 1889.340024 14397.212919 1897.472568 14394.217806 1804.590352 C 14391.650566 1712.136164 14380.953732 1518.239186 14375.391379 1425.784998 C 14369.829025 1332.902782 14369.829025 1341.035326 14301.797164 1304.224862 C 14233.337428 1267.842427 14097.273705 1185.660927 13997.579216 1140.717919 C 13898.3126 1095.774911 13835.415218 1087.642366 13786.209783 1067.096991 C 13737.432222 1046.979645 13701.918735 1014.021439 13714.327062 959.6618 C 13726.307515 904.874133 13786.209783 828.685034 13824.718384 761.912565 C 13862.799112 695.140096 13879.058299 637.784257 13933.826087 603.969994 C 13988.166002 569.727702 14081.014518 559.026986 14152.89724 592.841249 C 14225.207835 627.083541 14277.408383 705.840812 14285.110103 786.310198 C 14293.66757 866.779584 14258.154082 948.533056 14214.511001 997.75635 C 14170.86792 1046.979645 14119.095245 1063.244733 14090.427731 1085.074194 C 14061.760217 1106.903655 14056.197864 1133.86946 14027.53035 1135.581575 C 13999.290709 1136.865661 13947.090161 1112.039999 13920.13414 1101.339283 C 13892.750246 1090.210538 13890.183006 1093.206739 13791.772137 1130.017202 C 13693.789141 1166.827666 13500.390389 1237.452393 13403.26314 1271.694685 C 13306.563764 1305.936977 13306.563764 1302.940776 13309.558878 1429.637256 C 13312.126118 1556.761764 13317.688471 1812.722896 13320.255711 1931.286832 C 13322.822951 2049.850767 13322.822951 2031.017507 13355.769199 2032.301592 C 13388.287573 2033.585678 13453.752195 2055.415139 13486.698442 2066.543884 C 13519.216816 2077.244601 13519.216816 2077.244601 13570.989491 2033.585678 C 13622.762166 1989.926756 13726.307515 1903.036941 13779.791683 1859.378019 C 13832.847978 1815.719097 13835.415218 1815.719097 13914.571787 1836.264472 C 13993.300482 1856.381818 14148.190633 1897.472568 14226.063582 1918.017943 C 14303.508657 1938.13529 14303.508657 1938.13529 14303.080784 1929.146688 C 14302.65291 1919.730058 14301.797164 1901.324826 14301.797164 1892.336225 C 14301.36929 1882.919594 14301.36929 1882.919594 14223.068468 1859.806047 C 14144.767646 1836.6925 13987.738129 1790.465406 13909.437307 1767.351859 C 13831.136485 1744.238312 13831.136485 1744.238312 13769.522723 1796.457807 C 13707.908961 1848.677302 13585.109311 1953.116293 13523.49555 2005.763816 C 13461.881788 2057.983311 13461.881788 2057.983311 13460.170295 2084.093059 C 13458.030928 2110.202806 13453.752195 2161.994273 13431.930654 2712.439114 C 13410.109114 3262.455927 13370.744766 4310.698086 13349.351099 4934.335826 C 13328.385305 5557.973567 13325.818065 5757.006888 13324.106571 5856.737563 C 13322.822951 5956.040209 13322.822951 5956.040209 13253.507469 6024.096764 C 13183.764114 6092.153319 13044.705277 6228.694458 12901.79558 6272.35338 C 12758.45801 6316.012302 12611.269579 6266.789008 12529.54577 6247.955747 C 12447.821962 6228.694458 12431.562775 6239.395174 12420.865941 6267.645065 C 12410.169107 6295.894956 12405.462501 6341.265993 12403.323134 6363.951511 C 12400.755894 6387.065058 12400.755894 6387.065058 12519.27681 6411.462691 C 12637.797727 6436.288352 12874.83956 6485.511647 13126.856959 6417.883121 C 13378.874359 6349.826565 13645.01158 6165.346218 13794.76725 5978.725728 C 13944.522921 5792.533266 13977.041295 5604.200661 13965.488715 4911.222279 C 13953.936134 4218.671927 13898.3126 3020.619741 13842.261192 1822.995584 " stroke="#000000" stroke-width="62.258999" stroke-opacity="1" stroke-miterlimit="22.926001"/></g><path stroke-linecap="butt" transform="matrix(0.00840025, 0, 0, -0.0083972, 88.436307, 286.074416)" fill="none" stroke-linejoin="miter" d="M 15175.010002 5868.795619 C 15184.310322 5993.465161 15193.145627 6117.669518 15337.765611 6207.450196 C 15481.92058 6296.765689 15761.860229 6351.657502 15931.591079 6391.6634 C 16101.321929 6431.669298 16160.843981 6456.78928 16204.090472 6504.238135 C 16246.871946 6551.686991 16273.37786 6621.929905 16299.883773 6691.707633 " stroke="#000000" stroke-width="67.666" stroke-opacity="1" stroke-miterlimit="22.926001"/><g clip-path="url(#ad7fe2e2d5)"><path stroke-linecap="butt" transform="matrix(0.0112977, 0, 0, -0.0112936, 88.436307, 286.074416)" fill="none" stroke-linejoin="miter" d="M 13113.265571 5802.53339 C 13113.265571 5802.879272 13113.265571 5803.571036 13112.228302 5823.286308 C 13111.191033 5842.655698 13109.116494 5881.394479 13174.464467 5915.636794 C 13240.158197 5950.224992 13373.27444 5980.316723 13435.164848 5980.662605 C 13496.709501 5981.008487 13486.682563 5951.262637 13483.224998 5901.801516 C 13479.767433 5852.686276 13482.533485 5783.855763 13505.353412 5745.808746 C 13528.17334 5707.761729 13571.047142 5700.498208 13605.968546 5692.888805 C 13640.88995 5685.279401 13667.858955 5676.978234 13679.960432 5655.18767 C 13691.716152 5633.397105 13688.258587 5598.117144 13673.045302 5577.018344 C 13658.177774 5555.919544 13631.208769 5548.656022 13620.144562 5530.67016 C 13609.080355 5512.684297 13613.920945 5484.321976 13627.405448 5468.757287 C 13640.88995 5453.192598 13663.018364 5451.117306 13673.736815 5450.07966 C 13684.455266 5449.042014 13684.109509 5449.042014 13684.109509 5439.703201 C 13684.109509 5430.018506 13684.455266 5411.34088 13684.801022 5402.002066 C 13685.146779 5392.663253 13685.146779 5392.663253 13697.594012 5392.663253 C 13710.041245 5392.663253 13734.589954 5392.663253 13747.037188 5392.317371 C 13759.484421 5392.317371 13759.484421 5391.625607 13758.447151 5401.656184 C 13757.064125 5412.032644 13754.989586 5432.785562 13753.952317 5443.507903 C 13752.915048 5453.884362 13752.915048 5453.884362 13762.596229 5453.192598 C 13771.931654 5452.846716 13791.294016 5451.80907 13800.975197 5451.117306 C 13810.656379 5450.425542 13810.656379 5450.425542 13810.656379 5488.472559 C 13810.656379 5526.519576 13810.656379 5602.61361 13810.656379 5640.660627 C 13810.656379 5678.707644 13810.656379 5678.707644 13840.045679 5676.978234 C 13869.434979 5675.248824 13928.559336 5671.790004 13957.948636 5670.406476 C 13987.337937 5668.677067 13987.337937 5668.677067 13988.375206 5742.349927 C 13989.758232 5816.368668 13991.832771 5963.714388 13992.87004 6037.73313 C 13993.90731 6111.40599 13993.90731 6111.40599 14004.971517 6126.970679 C 14016.035724 6142.189486 14038.164138 6172.972981 14043.696242 6233.848208 C 14049.228345 6294.377553 14038.164138 6384.652748 14051.302884 6434.11387 C 14064.44163 6483.574992 14102.129086 6492.567923 14119.762666 6544.450219 C 14137.05049 6595.986633 14134.975951 6690.758293 14177.849754 6754.746458 C 14221.069313 6818.734623 14309.237214 6851.59341 14358.680389 6921.115686 C 14408.123565 6990.292081 14419.187772 7096.131964 14445.465264 7353.814033 C 14472.088513 7611.496102 14513.925046 8021.366238 14567.863056 8215.406025 C 14621.801066 8409.099929 14687.840552 8386.963483 14817.844986 8407.024637 C 14947.84942 8426.739909 15141.818802 8488.3069 15269.402941 8570.972692 C 15397.332836 8653.638483 15458.877488 8757.057192 15514.198524 9102.939164 C 15569.173803 9448.821136 15617.57971 10037.16637 15606.515503 10375.093056 C 15595.451295 10713.365625 15525.262731 10801.565527 15247.620283 10876.276033 C 14969.977835 10951.332421 14485.227259 11012.899412 14157.104365 11056.826423 C 13828.981472 11101.099315 13657.140504 11127.386345 13598.70766 11137.416922 C 13540.274816 11147.447499 13595.250096 11140.52986 13803.395493 11101.099315 C 14011.54089 11061.322888 14372.856405 10988.687674 14521.531688 10844.454892 C 14670.206972 10700.22211 14606.242024 10484.391759 14470.013974 10340.158977 C 14333.440167 10195.580313 14123.911744 10122.945099 14008.429082 10061.378108 C 13892.600663 9999.465235 13870.818005 9948.966467 13905.739409 9876.331253 C 13941.352326 9803.696039 14033.669304 9708.924379 14160.56193 9627.296233 C 14287.108799 9545.668088 14447.88556 9477.529339 14508.392942 9430.143509 C 14568.900325 9382.757679 14529.138331 9356.470649 13851.801399 9270.346038 C 13174.464467 9184.567309 11859.552598 9039.296881 11187.402013 8945.562867 C 10515.597185 8851.828853 10486.899398 8809.977134 10543.257703 8793.374799 C 10599.270252 8777.118347 10740.338893 8785.765396 11404.537079 8862.897076 C 12068.735265 8940.028755 13256.062995 9085.299184 13896.058228 9174.536732 C 14536.05346 9263.774281 14628.370439 9296.97895 14664.674868 9340.905961 C 14701.325055 9385.178853 14681.271179 9440.174087 14571.320621 9510.734009 C 14461.024306 9580.948049 14260.485551 9667.07266 14148.114697 9739.707874 C 14035.743843 9812.343088 14011.54089 9871.834787 14037.126869 9927.867667 C 14062.367091 9984.246428 14137.05049 10037.16637 14340.00954 10108.763938 C 14542.622833 10180.361506 14873.166022 10270.636701 15095.487435 10341.196623 C 15318.154604 10411.756545 15432.599996 10462.255313 15495.181918 10502.03174 C 15558.109596 10541.462285 15569.173803 10570.170488 15567.445021 10603.72104 C 15565.716239 10637.271591 15551.540223 10676.010372 15540.821773 10699.530346 C 15529.757565 10723.05032 15522.496679 10731.351487 15519.039115 10735.502071 C 15515.235794 10739.652654 15515.235794 10739.652654 15522.150923 10723.396202 C 15528.720296 10707.139749 15541.859042 10674.280962 15542.896311 10644.535112 C 15543.933581 10614.443381 15532.177861 10587.118705 15459.223245 10547.68816 C 15385.922872 10507.911733 15251.423604 10456.029438 15037.746103 10390.311863 C 14824.068603 10324.594288 14531.21287 10245.041435 14366.287032 10197.655605 C 14201.015437 10149.923893 14163.673738 10134.013322 14105.932407 10109.10982 C 14048.536832 10084.5522 13970.741626 10050.655767 13912.308782 10027.481675 C 13853.530181 10003.9617 13813.768187 9990.818186 13794.060068 9984.246428 C 13774.351949 9977.674671 13774.351949 9977.674671 13755.335343 10074.521623 C 13736.664493 10171.368575 13699.322794 10365.408361 13689.641613 10461.217667 C 13679.614675 10557.026973 13697.248255 10554.951682 13828.289959 10553.568154 C 13959.331662 10552.530508 14203.781489 10552.530508 14334.823193 10527.281124 C 14465.864896 10502.03174 14483.498476 10451.18709 14480.386668 10408.297725 C 14476.929103 10365.408361 14452.72615 10330.1284 14357.988876 10266.140235 C 14263.251603 10202.15207 14097.980008 10109.801584 13989.066719 10057.919288 C 13880.15343 10006.036992 13827.252689 9995.314651 13800.629441 9989.78054 C 13774.351949 9984.246428 13774.351949 9984.246428 13815.151213 9868.375968 C 13855.950477 9752.851389 13937.203248 9521.45635 13973.507678 9404.894125 C 14010.157864 9287.986019 14001.168196 9285.910727 13917.495129 9276.917796 C 13833.822062 9268.270747 13675.119841 9252.706058 13595.941609 9245.096654 C 13516.41762 9237.487251 13516.41762 9237.487251 13480.11319 9508.312835 C 13443.80876 9779.484301 13371.199901 10321.135469 13300.66558 10801.565527 C 13230.131259 11281.649704 13162.017234 11700.16689 13010.921655 12585.97062 C 12860.171833 13471.428467 12626.440457 14824.172859 12527.554105 15531.155609 C 12428.321997 16238.138359 12463.589157 16300.051232 12496.436022 16282.411252 C 12529.628644 16264.771271 12560.40097 16167.924319 12760.939725 15170.054831 C 12961.132723 14171.83946 13331.437906 12272.947435 13516.071863 11324.884951 C 13701.051577 10376.476584 13700.360064 10378.897758 13687.567074 10459.488257 C 13674.082572 10539.732875 13648.150836 10698.146818 13467.665957 10750.029114 C 13287.526834 10801.565527 12952.488811 10746.570294 12420.715355 10710.252687 C 11888.596142 10673.589198 11159.395739 10655.949217 10779.409374 10631.737479 C 10399.42301 10607.525741 10368.650684 10576.742246 10348.596808 10319.060177 C 10328.888689 10061.378108 10320.244778 9576.797465 10358.623746 9291.098957 C 10397.348471 9005.74633 10483.441833 8919.621719 10519.746263 8858.054728 C 10556.050693 8796.141855 10542.56619 8759.132484 10555.704936 8723.852523 C 10568.843682 8688.918444 10608.605677 8655.713775 10596.5042 8536.730376 C 10584.402723 8417.746978 10520.437776 8212.984851 10520.437776 8035.547399 C 10520.437776 7858.45583 10584.402723 7708.688936 10576.796081 7502.543281 C 10568.843682 7296.743508 10489.66545 7034.564973 10317.824482 6837.412249 C 10145.983515 6640.259525 9881.825569 6508.132612 9687.856187 6419.932709 C 9493.886806 6331.732806 9370.451745 6287.805796 9283.66687 6239.38232 C 9196.536238 6190.612962 9145.710037 6138.038902 9127.039187 5925.32149 C 9108.368338 5712.604077 9121.507084 5340.435075 9128.422213 5160.230568 C 9134.991586 4979.680179 9135.337342 4991.440166 9137.411881 5049.548337 C 9139.48642 5108.00239 9143.981254 5213.15051 9143.635498 5254.656346 C 9143.635498 5296.508065 9139.140664 5274.371619 8390.232142 5694.964096 C 7641.32362 6115.902456 6147.655654 6979.56974 5400.821671 7411.23044 C 4653.987688 7842.891141 4653.987688 7842.891141 4704.81389 7867.102879 C 4755.294335 7891.314617 4856.946738 7939.738093 4907.427183 7963.949831 C 4958.253385 7988.507451 4958.253385 7988.507451 5592.716514 7651.272529 C 6227.179643 7314.383488 7495.760145 6640.259525 8130.223274 6303.024603 C 8764.686403 5966.135562 8764.686403 5966.135562 8767.106698 6019.055504 C 8769.181237 6071.975446 8773.676071 6177.469447 8775.75061 6230.389389 C 8778.170905 6283.30933 8778.170905 6283.30933 8813.092309 6314.092826 C 8848.359469 6344.876321 8918.89379 6406.789194 9128.076457 6497.064389 C 9337.60488 6587.339584 9685.781648 6706.322982 9870.761362 6781.033488 C 10055.741075 6856.089876 10077.523733 6886.873371 10104.146982 6970.576808 C 10130.424474 7054.280245 10161.542556 7190.903624 10176.755841 7356.235207 C 10192.314882 7521.220907 10192.314882 7715.260693 10196.809716 7862.606413 C 10200.958794 8010.298015 10209.948462 8111.641433 9209.674984 8523.586861 C 8209.747263 8935.53229 6200.556394 9658.079729 5196.133839 10019.526389 C 4191.365526 10380.627168 4191.365526 10380.627168 4226.632687 10325.631934 C 4261.899847 10270.636701 4332.434168 10160.300352 4325.864795 10015.029924 C 4319.295422 9869.759495 4235.622355 9688.863224 4119.793936 9562.616305 C 4004.311274 9436.023503 3856.327503 9363.734171 3801.352224 9284.527199 C 3746.376945 9205.320228 3783.718644 9118.849735 3910.61127 9078.035662 C 4037.158139 9036.875707 4253.255935 9041.372173 4455.869229 9081.1486 C 4658.482522 9120.579145 4847.95707 9195.635533 5103.471104 9166.927329 C 5358.985138 9138.219125 5680.538658 9006.092212 6528.679288 8658.134948 C 7376.819918 8309.831803 8751.547657 7746.044189 9438.911526 7439.938644 C 10126.275396 7133.487217 10126.275396 7085.063741 10113.13665 7025.572042 C 10099.652147 6966.080343 10073.374655 6895.52042 9637.029986 7058.776711 C 9201.031072 7221.68712 8354.964982 7618.413741 7557.650553 7968.446297 C 6759.990369 8318.824734 6011.081847 8622.854987 5550.534224 8814.4736 C 5090.332358 9006.092212 4918.49139 9085.299184 4766.012785 9080.110954 C 4613.879937 9075.268606 4480.763695 8985.685176 4363.898007 8924.118185 C 4246.686562 8862.551194 4145.379915 8829.346524 4097.319765 8813.781836 C 4048.913859 8797.871265 4054.100206 8799.946557 4144.688402 8830.38417 C 4235.276598 8861.167666 4411.6124 8920.313483 4581.378829 8925.847595 C 4751.145257 8931.035824 4913.996556 8882.612348 5026.36741 8807.901842 C 5138.738264 8732.845454 5200.628673 8631.502037 5202.703212 8585.153852 C 5204.77775 8539.15155 5147.727932 8547.798599 5074.773316 8574.431511 C 5002.164457 8600.718541 4913.996556 8644.991433 4839.313158 8666.781998 C 4764.284003 8688.918444 4702.739351 8688.918444 4665.051895 8677.850221 C 4627.710196 8666.781998 4614.57145 8644.645552 4660.557061 8605.215007 C 4706.888428 8565.43858 4812.689909 8508.368055 4863.516111 8462.01987 C 4913.996556 8415.671686 4909.501722 8380.391725 4841.387697 8386.963483 C 4772.927915 8393.53524 4640.848942 8442.304598 4515.339342 8448.876356 C 4389.829742 8455.448113 4270.889515 8420.168152 4208.999106 8400.452879 C 4147.454454 8380.391725 4142.95962 8375.895259 4161.976226 8269.363612 C 4180.647076 8162.486083 4222.829365 7952.881608 4174.423459 7829.747626 C 4126.017553 7706.267762 3987.02345 7668.912509 3987.02345 7668.912509 C 3987.02345 7668.912509 4126.017553 7706.267762 4265.703168 7741.893605 C 4405.388783 7777.519448 4545.420155 7811.07 4654.333444 7849.80878 C 4763.246734 7888.547561 4840.696184 7932.820454 4973.120913 7958.761602 C 5105.199886 7985.048631 5291.908382 7993.349799 5414.997686 8015.140363 C 5538.086991 8036.930927 5597.557104 8072.210888 5641.468177 8091.926161 C 5685.725005 8111.641433 5714.422793 8116.137899 5774.930175 8097.460272 C 5835.437558 8078.782646 5928.100293 8036.930927 5968.899557 8002.688612 C 6009.353065 7968.446297 5998.634614 7942.159267 6028.369671 7927.632224 C 6058.104727 7913.451063 6128.293291 7911.375771 6168.055286 7889.239325 C 6207.81728 7867.102879 6216.461192 7825.25116 6243.084441 7802.077068 C 6269.361933 7778.902976 6313.618761 7774.752393 6346.465626 7765.759461 C 6379.658248 7757.112412 6401.440906 7743.968897 6420.457512 7730.4795 C 6439.128361 7717.335985 6454.341646 7704.19247 6492.029102 7702.117178 C 6529.370801 7699.696005 6588.840914 7708.688936 6606.474494 7698.658359 C 6624.108075 7688.627782 6599.905121 7660.26546 6610.969329 7642.625479 C 6622.033536 7624.985499 6668.019147 7618.413741 6701.211768 7598.352587 C 6734.40439 7578.637315 6754.112509 7545.432645 6781.773027 7543.357353 C 6809.087788 7541.282062 6844.354948 7569.644383 6869.595171 7574.140849 C 6895.18115 7578.637315 6910.394435 7558.922042 6909.357165 7533.326776 C 6908.319896 7508.077392 6890.686316 7477.293897 6898.292958 7454.119805 C 6906.245357 7430.945713 6939.092222 7415.726906 6964.332445 7421.261017 C 6989.918424 7426.449247 7007.552004 7453.082159 7011.701082 7451.006867 C 7016.195916 7448.585693 7007.552004 7417.802198 7021.728019 7401.199863 C 7035.904035 7384.597528 7073.59149 7382.522237 7103.326547 7378.025771 C 7133.061604 7373.875187 7155.190018 7366.957548 7183.542049 7357.272853 C 7212.239836 7347.242275 7247.506997 7334.098761 7278.279323 7338.595226 C 7309.397405 7342.74581 7335.674897 7364.882256 7347.776374 7360.38579 C 7359.87785 7356.235207 7357.803312 7325.105829 7363.335415 7293.284688 C 7368.521762 7261.463546 7382.006265 7228.258877 7403.788923 7226.183585 C 7425.917337 7223.762412 7456.689663 7252.470615 7489.882285 7241.402392 C 7523.074906 7230.680051 7557.99631 7179.835401 7605.364947 7165.65424 C 7652.733584 7151.127197 7712.203697 7173.263644 7728.800008 7163.233067 C 7745.396319 7153.548371 7719.118827 7111.696653 7727.762738 7088.522561 C 7736.752407 7065.348468 7780.663479 7060.852003 7805.903701 7043.212022 C 7831.143924 7025.572042 7838.059053 6994.788546 7863.299276 6987.179143 C 7888.539499 6979.56974 7932.796327 6994.788546 7958.03655 6984.757969 C 7983.276772 6975.073274 7989.846145 6939.793313 8028.57087 6930.800381 C 8066.949839 6922.153332 8137.48416 6939.793313 8179.320693 6946.36507 C 8221.157226 6952.936828 8234.295972 6948.440362 8232.221433 6926.649798 C 8230.146895 6904.513352 8212.513314 6864.736925 8238.790806 6848.480472 C 8265.414055 6831.878138 8335.948375 6838.449895 8364.300406 6827.381672 C 8392.998194 6816.313449 8379.859448 6787.605245 8401.987862 6765.814681 C 8423.77052 6743.678235 8481.166094 6728.113546 8521.965358 6732.610012 C 8562.764622 6737.106477 8586.967575 6761.318215 8598.031782 6752.671166 C 8609.09599 6743.678235 8606.675694 6701.826516 8614.628093 6671.043021 C 8622.234736 6640.259525 8639.868316 6620.198371 8663.034 6614.664259 C 8686.199683 6609.47603 8714.551714 6618.123079 8735.642859 6612.588967 C 8756.388247 6607.054856 8769.87275 6587.339584 8790.618138 6565.203137 C 8811.709283 6543.066691 8840.40707 6518.854953 8872.216666 6493.605569 C 8904.026262 6468.356185 8939.293422 6441.723273 8996.688997 6452.791497 C 9054.084571 6463.85972 9133.262804 6512.283196 9212.441036 6560.706672 " stroke="#000000" stroke-width="50.308998" stroke-opacity="1" stroke-miterlimit="22.926001"/></g><path stroke-linecap="butt" transform="matrix(0.00668384, 0, 0, -0.00668141, 88.436307, 286.074416)" fill="none" stroke-linejoin="miter" d="M 9844.353609 13657.904698 C 9960.655608 13602.363491 10076.957607 13547.406928 10184.493123 13514.082203 C 10292.028639 13480.757479 10390.797673 13469.649237 10465.020556 13479.58819 C 10539.827872 13490.111787 10590.089037 13521.682579 10610.544163 13575.469854 C 10630.999288 13629.841773 10621.648374 13705.84553 10590.089037 13743.262765 C 10558.529701 13780.679999 10504.177511 13778.341422 10498.917621 13787.111086 C 10493.0733 13795.296106 10535.736847 13814.004724 10557.360837 13846.744804 C 10578.984826 13878.90024 10578.984826 13925.671783 10546.256626 13974.781903 C 10513.528425 14024.476668 10448.656456 14076.510009 10414.759391 14119.189042 C 10381.446758 14161.868075 10379.693462 14195.777444 10344.043101 14247.810786 C 10308.977171 14299.844128 10240.014177 14370.586087 10177.479937 14409.757254 C 10115.530129 14448.928421 10059.424642 14456.528797 10012.67007 14480.499213 C 9966.499929 14504.469629 9929.096272 14545.979373 9727.467179 14553.579749 C 9525.838086 14561.764769 9159.983558 14537.209709 8975.302997 14514.993226 C 8790.038005 14492.776743 8785.94698 14473.483481 8770.167311 14464.713817 C 8754.972075 14455.944153 8728.088196 14457.698086 8697.697724 14461.205951 C 8666.72282 14464.713817 8632.825755 14469.975616 8615.877223 14472.314193 C 8598.92869 14474.65277 8598.92869 14474.65277 8507.172842 14467.052394 C 8416.001426 14458.867374 8233.658594 14442.497334 8050.73133 14426.127294 " stroke="#000000" stroke-width="85.039001" stroke-opacity="1" stroke-miterlimit="22.926001"/><g clip-path="url(#eeda031bd2)"><path stroke-linecap="butt" transform="matrix(0.0120844, 0, 0, -0.01208, 88.436307, 286.074416)" fill="none" stroke-linejoin="miter" d="M 9533.647243 7397.318438 C 9543.667926 7543.15614 9554.011857 7688.993841 9584.720402 7771.1286 C 9615.752194 7853.263359 9667.148601 7872.01854 9686.866719 7880.10267 C 9706.26159 7888.510165 9693.978172 7886.246609 8805.04661 8194.413637 C 7916.438297 8502.2573 6151.505087 9120.208183 5268.715235 9429.021942 C 4386.24863 9737.8357 4386.24863 9737.8357 4428.594097 9755.620786 C 4470.616316 9773.082506 4554.984003 9808.005947 4607.673401 9845.192944 C 4660.039551 9882.056576 4680.727413 9921.183765 4777.701765 9909.865983 C 4874.352869 9898.548201 5047.290464 9836.785449 5152.346012 9815.119981 C 5257.40156 9793.454514 5294.575062 9812.209695 5333.688051 9823.527476 C 5372.801039 9834.845258 5413.853515 9839.049006 6042.247317 9640.179412 C 6670.317871 9441.309819 7885.406504 9039.69025 8490.203214 8827.562684 C 9094.676675 8615.435118 9088.534966 8592.799554 9107.929837 8559.816305 C 9127.647955 8526.833055 9172.902653 8483.502119 9274.725723 8437.260897 C 9376.87204 8391.019674 9535.263482 8341.5448 9641.935269 8305.004533 C 9748.930305 8268.464266 9803.882438 8244.858607 9831.035256 8232.894095 C 9858.511323 8221.252948 9858.511323 8221.252948 9832.328248 8250.679181 C 9805.821925 8279.782048 9752.809279 8338.634513 9652.2792 8396.516882 C 9551.749122 8454.722617 9403.378363 8512.604986 9307.697002 8574.367738 C 9212.015642 8636.13049 9168.700431 8702.096989 8582.652096 8917.134842 C 7996.927009 9132.49606 6868.14555 9496.928632 6267.551062 9683.510348 C 5667.279822 9869.768699 5595.195554 9878.176194 5532.485473 9870.738795 C 5469.452144 9863.62476 5416.11625 9840.989197 5431.632146 9843.899484 C 5446.824795 9847.133135 5531.515729 9875.912638 5626.227346 9886.260324 C 5720.938964 9896.60801 5825.994512 9888.200515 5930.080316 9981.006325 C 6033.842873 10073.812135 6136.958934 10267.18452 6213.245425 10451.50268 C 6289.208667 10636.144205 6338.665587 10811.084774 6356.12097 10926.526148 C 6373.899602 11041.644156 6359.353449 11097.262969 6366.464901 11170.343503 C 6373.899602 11243.747401 6402.668659 11334.289655 6455.03481 11374.386939 C 6507.724208 11414.484223 6584.010698 11404.136537 6618.921465 11371.153287 C 6653.832231 11338.170038 6647.690522 11282.551225 6679.692059 11251.831531 C 6711.693595 11220.788473 6781.515128 11214.644534 7056.599041 11211.734247 C 7331.359705 11208.500595 7811.382748 11208.500595 8260.373999 11122.162089 C 8709.365249 11035.500218 9127.647955 10862.49984 9358.123665 10765.813647 C 9588.922624 10668.804089 9632.237834 10648.432082 9673.29031 10665.893803 C 9714.666034 10683.355523 9753.779022 10738.974336 9823.600556 10752.232309 C 9893.745337 10765.813647 9994.598663 10737.034145 10044.055583 10695.6434 C 10093.512503 10654.576021 10091.249768 10600.897399 10056.339001 10520.702831 C 10021.428234 10440.184898 9953.546188 10333.15102 9886.633885 10253.926547 C 9819.721582 10174.702075 9753.779022 10122.963645 9719.837999 10039.85879 C 9686.220224 9956.107205 9684.603984 9840.665832 9693.008428 9827.407859 C 9701.089624 9814.149886 9719.191503 9902.751949 9769.294919 9995.557759 C 9819.721582 10088.040204 9901.826533 10185.049762 10078.96635 10309.545361 C 10256.106166 10434.04096 10527.9576 10586.345965 10910.359796 10722.806076 C 11292.438743 10858.942822 11785.068452 10979.234674 12222.746028 11123.45555 C 12660.423604 11267.676426 13043.149048 11435.826326 13405.509877 11682.553967 C 13767.870706 11929.281609 14109.866921 12254.910358 14291.20896 12491.613679 C 14472.227751 12728.640365 14492.915612 12877.064988 14383.657842 13039.71768 C 14274.72332 13202.370372 14035.843166 13379.251132 13772.072928 13506.980383 C 13508.30269 13634.709634 13219.965616 13712.964011 13042.8258 13793.481943 C 12865.685983 13873.676511 12799.743424 13956.134635 12777.116075 14032.448821 C 12754.488726 14108.439641 12775.176588 14178.609888 13109.738103 14473.195578 C 13443.97637 14767.457903 14092.411538 15286.459037 14416.629122 15546.121286 C 14740.846706 15805.783536 14740.846706 15805.783536 14288.946225 15888.24166 C 13837.045744 15970.376419 12933.244782 16135.292667 12481.344301 16217.750791 C 12029.44382 16299.88555 12029.44382 16299.88555 11189.322682 15451.375285 C 10348.878297 14602.86502 8668.312774 12905.84449 7827.868388 12059.274417 C 6987.424003 11212.704343 6987.424003 11216.90809 7055.629297 11214.644534 C 7123.511344 11212.704343 7259.598685 11204.296848 7327.480731 11200.416466 C 7395.362778 11196.212718 7395.362778 11196.212718 8174.066826 12007.535986 C 8952.447626 12819.182619 10509.532473 14442.152519 11308.601135 15259.943091 C 12107.669797 16077.733662 12149.045521 16090.02154 12420.896955 16040.546665 C 12692.748389 15991.071791 13195.398781 15879.834165 13588.791402 15803.519979 C 13982.184024 15727.529159 14266.318876 15686.138415 14550.453728 15645.071035 " stroke="#000000" stroke-width="47.036999" stroke-opacity="1" stroke-miterlimit="22.926001"/></g><path stroke-linecap="butt" transform="matrix(0.0076169, 0, 0, -0.00761414, 88.436307, 286.074416)" fill="none" stroke-linejoin="miter" d="M 9728.213716 16299.884278 C 8589.709478 16241.912353 7450.692401 16183.940428 6881.440282 16155.210979 C 6311.675323 16125.968503 6311.675323 16125.968503 6302.957048 15997.199006 C 6294.238772 15868.942535 6276.802221 15611.40354 6258.85283 15353.864546 " stroke="#000000" stroke-width="74.625" stroke-opacity="1" stroke-miterlimit="22.926001"/><g clip-path="url(#336edc2c3b)"><path stroke-linecap="butt" transform="matrix(0.0094202, 0, 0, -0.00941678, 88.436307, 286.074416)" fill="none" stroke-linejoin="miter" d="M 4979.86708 10015.383241 C 5007.235127 10049.398305 5034.603174 10083.413369 5013.455138 10173.014026 C 4992.721769 10262.614683 4923.472318 10406.971297 4891.128262 10500.720133 C 4858.784207 10594.883787 4862.930881 10637.610026 4849.246858 10690.291894 C 4835.562834 10742.973761 4804.048114 10805.19644 4727.33465 10847.507861 C 4650.621186 10889.819283 4529.123645 10911.804629 4370.720708 11109.257929 C 4212.317772 11306.711229 4017.009439 11679.217664 3887.218551 11828.552093 C 3757.84233 11977.471703 3694.398222 11903.634125 3775.25836 11726.5069 C 3855.70383 11549.794493 4080.453547 11269.79244 4231.392471 11127.509915 C 4382.331395 10985.642208 4459.459526 10981.908847 4497.608925 11006.797918 C 4535.758323 11032.101808 4534.099654 11085.613311 4527.464976 11178.532511 C 4520.41563 11271.866529 4507.560942 11404.193425 4474.802219 11512.460886 C 4442.043497 11621.143164 4389.38074 11705.351189 4349.572672 11932.671375 C 4310.179272 12159.99156 4283.64056 12529.594271 4238.856484 12797.981424 C 4193.65774 13065.95376 4130.628299 13232.710538 3957.297337 13293.273945 C 3784.381042 13354.25217 3501.577893 13309.037024 3236.190774 13137.302431 C 2970.803655 12965.982656 2722.417898 12667.313799 2608.799038 12257.888575 C 2495.180178 11848.048532 2516.328214 11327.86694 2678.463157 10813.907615 C 2841.012767 10299.94829 3144.963952 9792.626051 3421.132423 9488.97938 C 3697.300894 9184.917891 3945.68665 9084.53197 4137.262977 9028.946377 C 4328.424636 8973.775602 4463.191533 8962.990338 4546.539675 8976.264509 C 4629.887817 8989.538681 4661.402537 9026.45747 4673.427891 9074.161523 C 4685.453245 9121.450759 4677.159898 9179.940077 4692.087923 9201.925423 C 4707.015948 9224.325588 4744.336012 9211.051416 4760.093372 9228.058948 C 4775.850732 9245.481298 4770.460057 9293.185352 4735.627997 9278.666727 C 4701.210605 9264.148102 4637.766497 9187.821616 4637.766497 9095.317234 C 4637.766497 9002.812852 4701.210605 8894.545391 4727.749317 8804.529917 C 4753.873362 8714.929259 4743.506677 8643.580588 4712.821292 8586.750542 C 4682.550573 8529.920495 4632.375821 8487.609074 4604.593107 8416.260403 C 4576.810393 8344.911731 4571.834385 8244.52581 4516.268957 8245.770263 C 4460.703529 8247.014717 4354.963348 8350.304363 4193.65774 8340.763553 C 4032.766799 8331.63756 3815.895763 8210.095928 3542.629963 7960.375578 C 3268.949497 7710.655228 2938.874267 7332.756161 2591.383008 7107.095246 C 2243.891749 6881.019515 1879.399128 6807.181936 1617.744015 6800.54485 C 1356.50357 6793.907765 1197.685965 6854.88599 1073.700421 7087.183989 C 949.300209 7319.896807 859.732056 7723.9294 829.04667 8136.258349 C 798.775952 8548.172481 827.802668 8968.38297 818.679986 9340.889405 C 809.557304 9713.395841 761.870556 10038.198223 757.723882 10578.70589 C 753.991876 11118.79874 793.385276 11874.596875 902.028128 12388.556199 C 1010.256313 12902.515524 1187.319281 13174.636038 1378.895608 13404.445131 C 1570.471934 13634.254223 1776.561619 13821.751895 2034.070058 13983.116041 C 2291.578497 14144.065369 2600.50569 14278.881173 2773.836653 14346.081666 C 2946.752947 14413.696976 2983.658344 14413.696976 3003.562378 14462.645483 C 3023.466412 14511.179173 3025.954416 14609.076187 3082.763846 14640.602344 C 3139.573276 14672.543319 3250.704132 14638.113437 3296.732211 14607.831733 C 3343.174957 14577.55003 3324.514925 14551.001687 3346.906963 14482.141923 C 3369.713669 14413.696976 3433.157777 14302.525791 3543.873965 14166.465534 C 3655.004822 14030.405277 3813.407758 13869.455948 3915.001265 13713.484434 C 4017.009439 13557.51292 4061.793515 13406.934038 4117.358943 13302.814756 C 4172.509704 13198.280656 4238.856484 13140.206156 4281.152556 13108.265181 C 4323.448628 13076.739024 4341.693992 13071.346392 4328.424636 13055.583313 C 4315.569948 13039.820235 4270.371204 13013.271892 4247.979166 12999.99772 C 4225.587128 12986.723549 4225.587128 12986.723549 4200.292418 13044.798049 C 4175.412375 13103.287367 4125.237623 13219.436367 4004.984085 13344.711359 C 3884.730547 13470.40117 3694.398222 13605.216973 3517.335254 13779.440473 C 3340.686952 13954.078791 3176.478672 14167.709987 3090.642526 14303.770244 C 3004.80638 14439.830501 2996.9277 14497.905001 3012.68506 14551.001687 C 3028.857087 14603.683555 3068.250488 14651.387608 3139.573276 14651.387608 C 3210.896064 14651.387608 3314.14824 14603.683555 3401.228389 14647.23943 C 3488.308537 14690.795305 3559.631326 14825.611108 3595.29272 15018.501412 C 3630.954114 15211.391715 3630.954114 15462.356518 3754.110324 15702.950875 C 3876.851866 15943.130414 4122.334952 16173.354325 4431.676812 16236.406639 C 4740.604006 16299.873771 5113.389975 16196.998943 5401.169132 16035.634797 C 5689.362957 15874.685468 5892.54997 15655.246822 6011.559506 15422.948822 C 6130.569042 15190.236004 6164.986434 14944.663833 6132.642379 14770.025515 C 6100.712991 14595.387198 6002.436824 14491.682733 5954.750076 14490.023462 C 5907.063328 14488.779008 5910.380667 14589.994566 5859.37658 14599.535376 C 5807.957825 14609.076187 5702.632313 14527.357069 5584.866778 14458.497305 C 5467.515912 14389.637541 5337.725024 14334.466766 5261.426227 14297.133159 C 5184.712763 14260.214369 5160.662055 14241.962384 5131.635339 14246.940198 C 5102.608623 14252.33283 5068.191231 14281.37008 5051.189869 14365.992923 C 5034.188506 14450.615766 5034.188506 14590.409383 5006.405792 14682.913765 C 4978.623078 14775.418148 4923.05765 14820.633294 4822.708146 14805.699851 C 4722.358641 14791.596044 4576.810393 14717.343648 4408.040772 14644.750523 C 4238.856484 14572.157398 4046.036155 14500.808726 3916.245267 14492.927187 C 3786.869046 14485.045648 3720.936934 14540.216423 3665.371506 14599.950194 C 3609.806078 14659.269148 3565.022002 14722.73628 3542.629963 14754.262437 C 3520.237925 14786.203412 3520.237925 14786.203412 3537.239287 14762.143976 C 3554.655317 14738.499358 3588.658042 14690.795305 3629.710112 14640.602344 C 3670.762182 14590.409383 3718.44893 14537.727516 3794.747726 14512.838444 C 3871.461191 14487.534555 3977.201371 14490.023462 4153.020337 14544.364601 C 4328.424636 14598.705741 4574.322389 14704.069476 4725.67598 14742.232719 C 4877.444239 14779.981144 4935.083004 14750.114258 4957.475042 14703.654658 C 4979.86708 14656.78024 4967.012392 14592.898291 4914.349635 14546.023873 C 4862.101546 14498.734637 4769.630722 14468.038116 4733.969328 14422.408151 C 4698.307934 14376.778187 4719.45597 14315.799962 4710.333287 14271.829269 C 4701.210605 14227.443759 4661.402537 14200.06578 4622.838472 14206.288048 C 4584.689073 14212.925134 4547.783677 14253.992102 4527.879643 14321.607412 C 4508.390277 14389.637541 4505.487605 14485.045648 4547.783677 14564.275858 C 4590.079749 14643.506069 4677.159898 14706.973201 4743.09201 14736.840087 C 4808.609455 14766.706973 4852.978864 14762.973612 4886.152254 14754.677255 C 4919.325644 14746.380898 4942.132349 14733.521544 4956.23104 14709.876926 C 4969.915063 14685.81749 4975.305739 14650.557973 4954.572371 14600.365012 C 4933.839002 14549.757233 4886.566921 14483.386376 4848.002856 14439.415684 C 4809.43879 14395.030173 4779.168071 14372.630009 4753.458694 14333.63713 C 4728.163985 14294.644251 4707.845283 14239.058659 4639.839834 14185.961973 C 4572.249052 14132.865287 4457.38619 14081.842691 4374.867382 13959.471423 C 4292.348575 13837.100155 4242.173823 13642.965398 4241.344488 13480.356799 C 4240.929821 13317.748199 4289.445903 13187.080574 4321.375291 13114.487449 C 4352.890011 13041.894324 4367.403369 13027.375699 4423.798132 13025.30161 C 4479.778228 13023.22752 4577.639728 13033.597967 4630.302484 13072.590845 C 4683.379908 13111.583724 4691.258588 13179.199035 4702.454607 13217.362277 C 4713.650626 13255.52552 4728.163985 13265.066331 4768.38672 13266.310784 C 4808.609455 13267.555238 4874.956235 13260.918152 4906.470955 13269.629327 C 4938.400343 13278.340502 4935.497671 13301.98512 4954.987038 13313.60002 C 4974.061737 13325.629738 5014.69914 13325.629738 5042.067186 13344.296542 C 5069.020566 13362.548527 5082.289922 13399.882134 5105.925962 13406.104402 C 5129.97667 13412.741488 5163.979394 13389.09687 5197.152784 13377.067152 C 5230.326174 13365.452252 5261.840894 13365.452252 5273.866248 13406.104402 C 5285.891602 13447.17137 5277.598255 13529.305306 5292.111613 13613.513331 C 5307.039638 13698.136173 5343.945034 13785.247923 5416.511825 13841.663152 C 5489.078615 13897.663563 5597.3068 13922.967452 5667.385586 13988.093855 C 5737.464372 14053.635077 5769.39376 14159.41363 5796.347139 14235.325298 C 5823.300518 14311.236966 5845.692556 14357.281748 5855.644573 14412.867341 C 5865.59659 14468.452933 5863.108586 14533.164519 5860.205915 14597.876105 " stroke="#000000" stroke-width="60.337002" stroke-opacity="1" stroke-miterlimit="22.926001"/></g><g clip-path="url(#23deb3f741)"><path stroke-linecap="butt" transform="matrix(0.00668384, 0, 0, -0.00668141, 88.436307, 286.074416)" fill="none" stroke-linejoin="miter" d="M 1827.113328 9658.937762 C 2062.639486 9485.883053 2297.581212 9312.828343 2614.343439 9157.312962 C 2931.105666 9001.797581 3329.688395 8863.821529 4035.098004 8841.605046 C 4740.507613 8819.388563 5753.912967 8912.347005 6407.308115 9115.218573 C 7060.703262 9318.090142 7354.672636 9630.874836 7541.106493 9882.27188 C 7726.955917 10133.668925 7805.269826 10323.678319 7544.613086 10167.578293 C 7283.956345 10010.893624 6684.328956 9508.099536 6602.508454 9340.891269 C 6520.687953 9173.098358 6956.089907 9340.891269 7360.516957 9671.799936 C 7764.359575 10003.293248 8136.642857 10498.486961 8445.807466 10850.442823 C 8754.972075 11202.398685 9000.43358 11411.116696 9192.711758 11518.106601 C 9384.405505 11624.511861 9522.331493 11629.77366 9591.294487 11632.696882 C 9660.257481 11635.035459 9660.257481 11635.035459 9401.354037 11675.375915 C 9142.450593 11715.716371 8624.643705 11795.812638 8108.005681 11854.277067 C 7591.95209 11912.741496 7076.482931 11948.989442 6818.748351 11966.528771 C 6561.598203 11984.652743 6561.598203 11984.652743 6581.468897 12029.670354 C 6601.924022 12074.10332 6642.834273 12163.553896 6679.069066 12222.018325 C 6715.30386 12280.482754 6746.278764 12307.376391 6906.997606 12298.606727 C 7068.30088 12289.837062 7358.763661 12245.404096 7784.814701 12146.599211 C 8211.450173 12047.794327 8773.673904 11895.202167 9222.517798 11763.657202 C 9671.361692 11632.696882 10006.825748 11522.783755 10105.594782 11197.136886 C 10204.363816 10871.490017 10066.437828 10329.524761 9427.069052 9926.120202 C 8788.284708 9523.300287 7649.226441 9258.456424 6988.233675 9135.681123 C 6327.24091 9012.905823 6144.898078 9031.61444 6127.949546 9053.830923 C 6111.001013 9076.047406 6260.031212 9102.356399 6511.337038 9057.923433 C 6762.642864 9012.905823 7116.224317 8897.730898 7682.539074 8908.839139 C 8248.269398 8919.947381 9026.733027 9057.923433 9557.397422 9165.497982 C 10088.061817 9273.657176 10370.92698 9351.99951 10653.792142 9534.408529 C 10937.241736 9716.817547 11220.106899 10003.293248 11305.433993 10146.531099 C 11391.34552 10290.353594 11279.718978 10290.353594 10994.516087 10083.389516 C 10709.897629 9877.010082 10251.70282 9463.66657 10041.307245 9143.281499 C 9830.91167 8822.896429 9868.315328 8596.054445 9887.017157 8469.186634 C 9905.718986 8342.903468 9905.718986 8316.594475 9870.068624 8294.377992 C 9835.002695 8272.161509 9764.286404 8253.452891 9728.636043 8245.852516 C 9693.570114 8238.25214 9693.570114 8242.34465 9706.427621 8192.065241 C 9719.285129 8141.785832 9745.584575 8037.134505 9702.336596 7955.284304 C 9659.673049 7873.434104 9548.046508 7813.800386 9467.979303 7817.892896 C 9387.912098 7821.400762 9339.404229 7888.634855 9326.546721 7945.929995 C 9313.689214 8003.80978 9335.897636 8052.335256 9395.509716 8074.551739 C 9455.121795 8096.768222 9551.553101 8093.260356 9593.047783 8124.831148 C 9633.958034 8156.401939 9618.762798 8223.636033 9521.747061 8253.452891 C 9425.315755 8283.26975 9246.479516 8275.669374 9157.061397 8272.161509 C 9067.643277 8268.068999 9067.643277 8268.068999 9060.045659 8398.444675 C 9053.032474 8528.820352 9037.837238 8789.571704 9030.23962 8919.947381 C 9023.226434 9050.323057 9023.226434 9050.323057 9051.863609 9057.923433 C 9080.500785 9065.523809 9138.359568 9080.139916 9335.897636 9123.403593 C 9533.435704 9166.082626 9870.068624 9236.824585 9979.357437 9091.248158 C 10088.061817 8945.67173 9968.837658 8584.946203 9929.680704 8175.110557 C 9890.52375 7765.27491 9931.434 7307.498432 9940.784915 6987.113362 C 9950.135829 6667.312936 9927.927407 6484.319273 9887.017157 6358.036107 C 9846.106906 6231.168296 9786.494826 6160.426337 9833.249399 6050.513211 C 9879.419539 5941.184729 10031.956331 5792.100435 10209.039273 5683.941242 C 10386.122216 5575.782048 10587.166876 5509.132599 10818.017577 5499.778291 C 11048.868278 5490.423982 11309.525018 5538.949458 11474.919318 5643.016141 C 11640.898049 5747.082825 11711.61434 5907.27536 11719.211958 5916.629669 C 11726.225144 5925.983977 11670.704089 5784.500059 11575.441648 5655.878316 C 11480.763639 5527.841216 11346.344244 5412.081647 11151.143905 5341.339688 C 10955.359133 5270.597729 10698.793418 5244.288736 10501.25535 5274.105595 C 10303.717282 5303.922454 10166.375726 5389.865164 10100.919325 5445.406372 C 10036.047356 5501.532223 10043.060542 5527.841216 10075.20431 5562.919874 C 10106.763646 5598.583175 10162.284701 5643.016141 10190.337444 5665.232624 C 10218.390188 5687.449107 10218.390188 5687.449107 10144.167304 5695.049483 C 10069.359989 5702.649859 9920.329789 5717.265966 9830.91167 5655.878316 C 9741.49355 5594.490665 9711.687511 5457.099257 9743.831279 5356.54044 C 9775.390615 5255.981622 9868.315328 5192.255395 9912.732171 4996.984202 C 9957.733447 4801.71301 9954.226854 4473.727563 10006.241316 4280.210304 C 10058.255778 4086.693044 10166.375726 4027.059327 10596.517791 4008.350709 C 11026.659856 3989.642092 11778.824037 4011.858575 12232.927821 4030.567192 C 12687.031604 4049.27581 12843.659421 4063.891917 13072.756825 4200.114036 C 13301.854229 4335.751511 13603.42122 4592.994998 13754.204716 4721.616742 C 13904.988212 4849.653841 13904.988212 4849.653841 13969.860181 4792.358701 C 14035.316582 4734.478916 14165.644952 4618.719347 14230.516921 4557.331697 C 14295.973322 4495.944046 14295.973322 4488.928315 14461.367622 4542.71559 C 14627.346353 4596.502864 14958.719384 4712.262433 15124.113684 4769.557574 C 15290.092415 4827.437358 15290.092415 4827.437358 15290.092415 4970.675209 C 15290.092415 5114.497704 15290.092415 5400.973406 15290.092415 5544.211257 C 15290.092415 5687.449107 15290.092415 5687.449107 15232.233632 5741.821026 C 15174.374849 5795.608301 15059.241715 5903.767494 15001.382932 5957.554769 C 14943.524148 6011.926688 14943.524148 6011.926688 15148.075402 6436.963086 C 15352.042224 6862.584128 15760.560299 7713.826213 15965.111553 8138.862611 C 16169.078374 8564.483653 16169.078374 8564.483653 16152.714274 8560.975787 C 16136.350174 8558.052566 16103.037541 8551.036835 16086.673441 8548.113613 C 16070.30934 8544.605747 16070.30934 8544.605747 15880.953323 8187.388087 C 15691.012873 7830.755071 15311.716405 7116.904394 15122.360387 6759.686733 C 14932.419937 6402.469073 14932.419937 6402.469073 14940.601988 6770.794975 C 14948.784038 7138.536232 14965.73257 7874.603392 14973.91462 8242.34465 C 14982.09667 8610.670552 14982.09667 8610.670552 14900.860601 8653.349585 C 14820.208964 8696.028618 14658.321257 8781.386684 14577.085188 8824.065717 C 14495.849119 8867.329395 14495.849119 8867.329395 14487.082637 8486.141318 C 14477.731722 8104.953242 14459.614325 7343.161734 14450.263411 6962.558301 C 14440.912496 6581.370225 14440.912496 6581.370225 14420.457371 6538.691192 C 14400.002246 6496.012159 14359.091995 6410.069448 14338.63687 6369.144348 C 14318.181744 6328.219248 14318.181744 6331.727114 14318.181744 6771.379619 C 14318.766176 7211.032124 14318.766176 8086.244625 14319.350608 8524.143197 C 14319.350608 8961.457125 14319.350608 8961.457125 14279.609222 8983.088964 C 14239.867836 9004.720803 14160.385063 9047.98448 14120.059244 9069.616319 C 14080.317858 9091.248158 14080.317858 9091.248158 14079.148993 8897.730898 C 14077.980129 8704.798283 14075.057968 8318.933052 14062.784893 7937.744975 C 14049.927386 7557.141543 14027.718964 7180.630621 14016.614753 6992.959804 C 14005.510542 6804.704343 14005.510542 6804.704343 13944.145166 6817.566518 C 13882.77979 6831.013336 13759.464605 6856.737685 13698.099229 6870.184504 C 13636.733853 6883.046678 13636.733853 6883.046678 13616.278728 7302.821278 C 13596.408035 7722.595877 13556.082216 8562.145076 13535.627091 8981.919675 C 13515.171965 9401.694275 13515.171965 9401.694275 13466.079664 9429.172557 C 13416.987364 9456.650838 13318.21833 9511.607401 13269.126029 9539.085683 C 13220.033728 9566.563964 13220.033728 9566.563964 13179.123477 9589.365092 C 13138.797658 9612.166219 13058.146021 9657.768473 13017.820203 9680.569601 C 12976.909952 9703.370728 12976.909952 9703.370728 12992.105188 9259.625713 C 13007.300424 8815.296053 13037.106464 7927.221378 13024.248956 7481.72243 C 13010.807017 7035.638838 12955.285962 7032.130972 12933.07754 6994.713737 C 12910.869119 6957.296503 12921.97333 6886.554544 12889.829561 6840.367645 C 12858.270225 6793.596102 12784.047341 6771.379619 12705.733433 6760.271377 C 12627.419524 6749.163136 12545.599023 6749.163136 12504.688772 6749.163136 C 12463.778521 6749.163136 12463.778521 6749.163136 12480.727054 6553.307299 C 12497.091154 6358.036107 12530.988219 5966.909077 12547.352319 5771.637885 C 12564.300852 5575.782048 12564.300852 5575.782048 12664.823182 5570.52025 C 12765.345512 5564.673807 12966.390173 5553.565565 13204.838492 5550.057699 C 13443.28681 5545.965189 13718.554355 5550.057699 13867.584554 5465.868922 C 14016.614753 5382.264788 14038.823175 5210.964012 14021.29021 5089.358 C 14003.172813 4967.751988 13945.31403 4895.84074 13926.027769 4870.116391 C 13907.32594 4843.807398 13927.196633 4863.685304 13948.820623 4897.010029 C 13971.029045 4929.750109 13994.990763 4976.521652 14006.679406 5033.816792 C 14018.368049 5091.111933 14017.783617 5158.93067 14017.199185 5192.840039 C 14016.614753 5226.749408 14016.614753 5226.749408 13992.068603 5178.223932 C 13966.93802 5130.2831 13917.845719 5033.232148 13805.634746 4922.734377 C 13693.423772 4811.651962 13518.678558 4687.122729 13321.14049 4567.855294 C 13123.602422 4448.587859 12903.855933 4335.166867 12460.271928 4294.241767 C 12016.103492 4253.316667 11347.513108 4284.887458 10913.86445 4319.381471 C 10479.63136 4353.875484 10280.924428 4390.708074 10160.531404 4444.495349 C 10040.138381 4498.282624 9998.059266 4567.855294 9975.850844 4622.811857 C 9953.05799 4677.76842 9949.551397 4717.524232 9969.42209 4815.744472 C 9989.292783 4913.964713 10032.540763 5070.649382 10218.97462 5130.867744 C 10405.408477 5191.67075 10735.028211 5156.007449 10947.177083 5086.434778 C 11159.325955 5016.277464 11254.588396 4912.21078 11273.874657 4788.266191 C 11293.74535 4664.321602 11237.639863 4521.083751 11171.59903 4438.648906 C 11105.558197 4355.629417 11028.997584 4333.412934 10991.009495 4322.304693 C 10953.021405 4310.611807 10953.021405 4310.611807 10834.381677 4349.782974 C 10716.326382 4388.954142 10479.63136 4467.296476 10443.396567 4594.748931 C 10407.161773 4722.201386 10571.387208 4899.348606 10772.431869 5020.954618 C 10973.47653 5143.145274 11211.340416 5210.379368 11373.812555 5301.583877 C 11535.700262 5392.788386 11621.027356 5507.963311 11652.586692 5586.89029 C 11683.561596 5665.232624 11660.18431 5707.327013 11652.00226 5733.636006 C 11643.82021 5759.944999 11650.248964 5771.053241 11705.185586 5741.821026 C 11760.706641 5712.588812 11865.319996 5643.016141 12007.337009 5607.937484 C 12149.938455 5573.443471 12330.52799 5573.443471 12453.258742 5572.274182 C 12576.573927 5571.104894 12641.445896 5569.350961 12727.357422 5516.148331 C 12812.684517 5463.530345 12919.051169 5358.879017 12924.311058 5224.995475 C 12930.15538 5091.111933 12835.477371 4926.826887 12735.539473 4850.82313 C 12636.186007 4774.234728 12531.572651 4785.342969 12424.621567 4858.423506 C 12317.670483 4930.919397 12207.797238 5064.80294 12125.976737 5202.778992 C 12044.156235 5340.755044 11989.804045 5482.238962 11951.815955 5582.213135 C 11913.827865 5682.771953 11891.035011 5742.40567 11844.864871 5769.299308 C 11798.110298 5795.608301 11727.394008 5788.592569 11702.263425 5807.885831 C 11677.132843 5827.179092 11698.1724 5871.612058 11734.407194 5931.83042 C 11770.641987 5992.048782 11822.656449 6067.467895 11844.864871 6440.470951 C 11867.073293 6812.889364 11859.475675 7483.476363 11886.943986 8166.340892 C 11914.412297 8849.205422 11976.946537 9544.347481 12039.480778 10240.074185 " stroke="#000000" stroke-width="85.039001" stroke-opacity="1" stroke-miterlimit="22.926001"/></g><g clip-path="url(#6e02d479d9)"><path stroke-linecap="butt" transform="matrix(0.00668384, 0, 0, -0.00668141, 88.436307, 286.074416)" fill="none" stroke-linejoin="miter" d="M 1513.273262 9988.677141 C 990.206485 9801.590969 467.139707 9614.504796 208.820695 9520.96171 C -48.913884 9427.418624 -41.316266 9427.418624 528.505083 9032.783729 C 1098.326433 8637.564189 2230.371514 7848.294399 2796.101839 7453.659504 C 3362.416595 7059.024609 3362.416595 7059.024609 4021.071632 7230.325386 C 4680.311101 7401.626162 5998.79004 7744.227716 6762.058432 7941.252841 C 7525.326824 8138.862611 7733.969103 8190.895953 7845.595645 8217.204946 C 7957.222186 8242.929294 7971.83299 8242.929294 7830.400409 8359.858152 C 7688.967827 8476.78701 7390.322997 8710.644725 7241.292798 8827.573583 C 7092.262599 8944.502441 7092.262599 8944.502441 7224.928698 8935.148132 C 7357.594796 8926.378468 7622.926994 8908.839139 7878.323845 8917.608804 C 8133.720696 8926.963112 8379.182201 8963.211058 8528.796832 8985.427541 C 8677.827031 9007.644024 8731.010357 9015.829044 8669.644981 8912.347005 C 8607.695173 8808.280322 8431.196662 8592.546579 8288.595217 8461.586258 C 8145.993771 8330.625938 8037.289391 8283.854394 7982.937201 8261.053267 C 7928.58501 8237.667496 7928.58501 8237.667496 7958.39105 8238.836784 C 7988.19709 8240.590717 8047.224738 8242.929294 8077.030777 8244.683227 C 8106.836817 8245.852516 8106.836817 8245.852516 8113.265571 8128.339014 C 8119.109892 8011.410156 8131.382968 7776.967796 8138.980586 7653.607851 C 8145.993771 7530.247906 8148.915932 7517.970376 7860.206448 7443.720551 C 7570.912532 7370.055371 6989.986972 7233.833252 6699.524192 7166.014514 C 6409.061411 7098.195777 6409.061411 7098.195777 6410.814708 7168.937735 C 6412.568004 7239.679694 6416.659029 7381.163612 6327.825342 7483.476363 C 6239.576087 7585.789113 6058.986551 7648.930697 5878.397016 7641.914965 C 5697.807481 7634.314589 5517.217945 7555.972255 5427.215394 7392.271854 C 5336.62841 7228.571453 5336.62841 6978.928342 5336.62841 6854.399108 C 5336.62841 6729.28523 5336.62841 6729.28523 4981.29366 6649.188963 C 4625.374479 6569.092695 3914.120548 6408.90016 3558.785799 6329.388537 C 3202.866618 6249.292269 3202.866618 6249.292269 2680.384272 6675.497956 C 2157.901927 7101.703642 1112.937237 7954.69966 590.454892 8380.905346 C 67.972546 8807.111033 67.972546 8807.111033 67.972546 8902.408052 C 67.972546 8997.120427 67.972546 9186.545177 67.972546 9281.842196 C 67.972546 9376.554571 67.972546 9376.554571 67.972546 9288.857927 C 67.972546 9201.745928 67.972546 9026.937286 67.972546 8939.240642 C 67.972546 8852.128643 67.972546 8852.128643 110.636094 8811.788187 C 153.299641 8772.032376 238.626735 8691.936108 281.290282 8651.595652 C 323.369397 8611.839841 323.369397 8611.839841 377.137156 7733.119474 C 430.904914 6854.399108 537.855998 5096.373731 591.039324 4217.653365 C 644.807082 3338.932999 644.807082 3338.932999 674.613122 3313.20865 C 704.419161 3286.899657 764.031241 3234.866315 795.590577 3208.557322 C 827.149914 3182.832973 831.240939 3182.832973 888.51529 3193.941215 C 946.374073 3205.049456 1058.000614 3227.265939 1115.859397 3238.374181 C 1173.718181 3249.482422 1177.224774 3249.482422 1151.509759 3906.622603 C 1125.210312 4564.347428 1069.104825 5878.62779 1041.636514 6562.076964 C 1013.583771 7244.941493 1013.583771 7297.559479 1013.583771 7323.283828 C 1013.583771 7349.592821 1013.583771 7349.592821 1363.658631 7043.823858 C 1713.73349 6738.639539 2413.88321 6128.270901 2763.373638 5822.501938 C 3113.448498 5517.317619 3113.448498 5517.317619 3174.813874 4616.38077 C 3236.763682 3714.859276 3359.494435 1912.985578 3420.859811 1013.802662 C 3482.225187 114.035101 3482.225187 118.127611 3512.031227 107.019369 C 3541.837267 95.911128 3601.449346 69.602135 3631.255386 56.739961 C 3661.061426 43.293142 3661.061426 43.293142 3718.920209 52.64745 C 3776.19456 62.001759 3891.912126 80.710376 3949.77091 90.064685 C 4007.629693 99.418994 4007.629693 99.418994 3995.94105 989.247601 C 3984.836839 1879.076209 3962.628417 3659.318069 3953.277503 4550.90061 C 3943.926588 5443.067795 3948.017613 5446.57566 4457.642451 5584.551712 C 4967.851721 5721.94312 5984.763668 5993.802715 6546.9874 6141.133076 C 7109.211131 6288.463436 7217.33108 6310.679919 7300.904878 6303.079544 C 7384.478676 6295.479168 7444.090755 6258.646578 7475.065659 5909.613937 C 7506.040563 5561.165941 7508.378292 4901.102539 7465.714745 4566.101361 C 7423.051198 4231.100184 7334.801942 4220.576586 7043.170298 4260.332398 C 6751.538653 4299.503565 6256.524619 4388.954142 5889.501227 4439.23355 C 5523.062267 4489.512959 5284.613948 4500.621201 5046.16563 4550.90061 C 4807.717311 4601.180018 4569.853424 4690.630595 4414.978904 4783.589037 C 4260.688815 4877.132123 4189.972525 4973.59843 4182.374907 5046.094322 C 4174.777289 5119.174858 4230.882775 5167.11569 4271.793026 5195.178616 C 4312.703277 5223.241542 4339.002724 5230.841918 4350.106935 5288.721702 C 4361.795578 5347.186131 4359.457849 5455.929969 4357.704553 5510.301888 C 4356.535688 5564.673807 4356.535688 5564.673807 4358.873417 5527.841216 C 4361.211146 5491.008626 4365.886603 5417.92809 4361.795578 5362.386883 C 4358.288985 5306.845675 4346.01591 5270.013085 4340.171588 5251.304468 C 4334.327267 5232.595851 4334.327267 5232.595851 4373.484221 5205.702213 C 4413.225607 5178.223932 4492.123948 5124.436657 4680.311101 5068.89545 C 4868.498255 5013.938886 5165.389789 4957.22839 5464.619051 4892.917519 C 5763.848314 4829.191291 6065.415305 4758.449332 6242.498248 4691.799883 C 6419.58119 4624.56579 6471.595652 4561.424207 6598.417429 4527.514838 C 6724.654774 4494.190114 6925.699435 4490.682248 7083.496116 4483.081872 C 7241.292798 4475.481496 7355.8415 4464.373255 7415.45358 4576.040314 C 7475.065659 4687.707373 7479.741117 4922.734377 7482.078845 5052.52541 C 7484.416574 5182.901086 7484.416574 5209.210079 7437.662001 5205.702213 C 7391.491861 5201.609703 7297.982717 5168.284979 7182.849583 5212.717945 C 7067.132016 5257.735555 6929.79046 5380.510856 6812.319597 5486.916116 C 6694.848734 5592.736732 6597.832997 5682.187309 6540.558646 5778.653616 C 6482.699863 5875.704568 6463.998034 5979.771252 6454.647119 6032.389238 C 6445.296205 6084.422579 6445.296205 6084.422579 6388.021854 5998.479869 C 6330.163071 5913.121803 6214.445504 5741.821026 6229.64074 5559.412008 C 6244.251544 5377.00299 6389.77515 5182.901086 6553.416153 5130.867744 C 6717.057156 5078.834403 6899.98442 5168.284979 6890.633506 5303.922454 C 6881.282591 5440.144573 6680.237931 5622.553591 6484.453159 5721.358476 C 6289.25282 5820.163361 6099.31237 5834.779468 5909.37192 5741.821026 C 5719.43147 5648.862584 5529.49102 5447.744949 5386.305143 5296.906722 C 5242.534833 5146.068496 5146.103528 5045.509678 4998.826625 5026.801061 C 4851.549722 5008.092444 4654.596087 5071.234027 4574.528882 5157.176737 C 4494.461677 5242.534803 4531.280902 5350.693997 4593.230711 5441.898506 C 4654.596087 5533.103015 4739.923181 5607.937484 4870.251551 5635.415766 C 5000.579922 5663.478691 5175.909568 5644.770074 5274.094169 5587.474934 C 5372.278771 5530.179794 5393.318329 5434.29813 5393.318329 5373.495124 C 5392.733897 5312.692118 5370.525475 5286.383125 5347.732621 5260.658776 " stroke="#000000" stroke-width="85.039001" stroke-opacity="1" stroke-miterlimit="22.926001"/></g><g clip-path="url(#492d1878a4)"><path stroke-linecap="butt" transform="matrix(0.00668384, 0, 0, -0.00668141, 88.436307, 286.074416)" fill="none" stroke-linejoin="miter" d="M 7473.896795 5285.798481 C 7543.444221 4099.555219 7612.991648 2913.311956 7648.057577 2320.482647 C 7682.539074 1727.653338 7682.539074 1727.653338 7727.54035 1679.127862 C 7771.957193 1630.602386 7861.375313 1534.136079 7906.376589 1485.610603 C 7950.793432 1437.085127 7950.793432 1437.085127 8008.652215 1472.748428 C 8066.510999 1507.827086 8181.644133 1578.569045 8239.502916 1614.232346 C 8297.361699 1649.311004 8297.361699 1649.311004 8276.906574 2561.940739 C 8256.451448 3473.985829 8214.956766 5298.660655 8190.995047 6237.014739 C 8167.033329 7175.368823 8159.435711 7227.402164 8129.629671 7253.711157 C 8099.823631 7279.435506 8047.80917 7279.435506 8030.860637 7316.268096 C 8013.912105 7353.100686 8032.613934 7426.181223 8041.964848 7463.013813 C 8051.315763 7499.261759 8051.315763 7499.261759 8047.80917 7464.767746 C 8043.718145 7429.689088 8036.704959 7360.116418 8032.613934 7325.622405 C 8029.107341 7290.543748 8029.107341 7290.543748 7763.775143 7233.833252 C 7498.442945 7177.122756 6967.77855 7063.701763 6702.446352 7006.991267 C 6437.114155 6950.280771 6437.114155 6950.280771 6414.905733 6893.570275 C 6392.697311 6836.275135 6347.696035 6722.854143 6237.238358 6649.188963 C 6126.196249 6576.108426 5949.113307 6542.199058 5811.771751 6543.952991 C 5673.845762 6546.291568 5575.076728 6583.124158 5524.815563 6603.002064 C 5474.554398 6622.295325 5472.801102 6624.049258 5100.51782 6532.260105 C 4728.234538 6439.886307 3984.836839 6253.969423 3591.514 6168.026713 C 3197.606728 6082.668647 3152.605452 6097.284754 2668.111197 6490.165716 C 2183.03251 6883.046678 1257.876411 7653.607851 332.720312 8424.753668 " stroke="#000000" stroke-width="85.039001" stroke-opacity="1" stroke-miterlimit="22.926001"/></g></svg>